<svg width="1274" height="661" xmlns="http://www.w3.org/2000/svg"><g><path d="M-30,-51L-42,131L-29,30Z" fill="#810b25" stroke="#810b25"/><path d="M-30,-51L-29,30L26,-41Z" fill="#5e001f" stroke="#5e001f"/><path d="M-30,-51L26,-41L293,-39Z" fill="#700a22" stroke="#700a22"/><path d="M-30,-51L293,-39L434,-49Z" fill="#863034" stroke="#863034"/><path d="M-30,-51L434,-49L513,-50Z" fill="#8d4644" stroke="#8d4644"/><path d="M-30,-51L513,-50L1076,-52Z" fill="#95757c" stroke="#95757c"/><path d="M26,-41L-29,30L45,49Z" fill="#7f0524" stroke="#7f0524"/><path d="M26,-41L45,49L112,-30Z" fill="#800724" stroke="#800724"/><path d="M26,-41L112,-30L196,-30Z" fill="#7c0c24" stroke="#7c0c24"/><path d="M26,-41L196,-30L293,-39Z" fill="#841e2c" stroke="#841e2c"/><path d="M112,-30L45,49L127,36Z" fill="#9d1029" stroke="#9d1029"/><path d="M112,-30L127,36L196,-30Z" fill="#95152c" stroke="#95152c"/><path d="M196,-30L127,36L214,50Z" fill="#af2534" stroke="#af2534"/><path d="M196,-30L214,50L293,-39Z" fill="#a53139" stroke="#a53139"/><path d="M293,-39L214,50L294,55Z" fill="#be4144" stroke="#be4144"/><path d="M293,-39L294,55L370,25Z" fill="#be4e4f" stroke="#be4e4f"/><path d="M293,-39L370,25L369,-36Z" fill="#ab5251" stroke="#ab5251"/><path d="M293,-39L369,-36L434,-49Z" fill="#9a5754" stroke="#9a5754"/><path d="M369,-36L370,25L434,-49Z" fill="#aa5d5e" stroke="#aa5d5e"/><path d="M434,-49L370,25L439,43Z" fill="#bf6468" stroke="#bf6468"/><path d="M434,-49L439,43L509,28Z" fill="#c26f76" stroke="#c26f76"/><path d="M434,-49L509,28L513,-50Z" fill="#aa7078" stroke="#aa7078"/><path d="M513,-50L509,28L593,-37Z" fill="#ac7783" stroke="#ac7783"/><path d="M513,-50L593,-37L665,-35Z" fill="#997b89" stroke="#997b89"/><path d="M513,-50L665,-35L760,-46Z" fill="#8e7787" stroke="#8e7787"/><path d="M513,-50L760,-46L1076,-52Z" fill="#6a677e" stroke="#6a677e"/><path d="M593,-37L509,28L599,41Z" fill="#c27d8d" stroke="#c27d8d"/><path d="M593,-37L599,41L665,-35Z" fill="#ab798c" stroke="#ab798c"/><path d="M665,-35L599,41L672,42Z" fill="#ba7b8e" stroke="#ba7b8e"/><path d="M665,-35L672,42L768,29Z" fill="#ad758c" stroke="#ad758c"/><path d="M665,-35L768,29L760,-46Z" fill="#8f6e86" stroke="#8f6e86"/><path d="M760,-46L768,29L829,-25Z" fill="#836682" stroke="#836682"/><path d="M760,-46L829,-25L913,-46Z" fill="#625e7b" stroke="#625e7b"/><path d="M760,-46L913,-46L1076,-52Z" fill="#3f4c70" stroke="#3f4c70"/><path d="M829,-25L768,29L829,54Z" fill="#966984" stroke="#966984"/><path d="M829,-25L829,54L926,39Z" fill="#865e7e" stroke="#865e7e"/><path d="M829,-25L926,39L913,-46Z" fill="#645278" stroke="#645278"/><path d="M913,-46L926,39L986,38Z" fill="#654a74" stroke="#654a74"/><path d="M913,-46L986,38L1015,-45Z" fill="#4c416e" stroke="#4c416e"/><path d="M913,-46L1015,-45L1076,-52Z" fill="#313b67" stroke="#313b67"/><path d="M1015,-45L986,38L1078,30Z" fill="#56386b" stroke="#56386b"/><path d="M1015,-45L1078,30L1076,-52Z" fill="#3c3062" stroke="#3c3062"/><path d="M1076,-52L1078,30L1146,-32Z" fill="#3a2654" stroke="#3a2654"/><path d="M1076,-52L1146,-32L1248,-31Z" fill="#24193f" stroke="#24193f"/><path d="M1076,-52L1248,-31L1324,-28Z" fill="#220b2c" stroke="#220b2c"/><path d="M1146,-32L1078,30L1172,32Z" fill="#4b214d" stroke="#4b214d"/><path d="M1146,-32L1172,32L1248,-31Z" fill="#361138" stroke="#361138"/><path d="M1248,-31L1172,32L1238,40Z" fill="#480e31" stroke="#480e31"/><path d="M1248,-31L1238,40L1310,38Z" fill="#490523" stroke="#490523"/><path d="M1248,-31L1310,38L1324,-28Z" fill="#390016" stroke="#390016"/><path d="M1324,-28L1310,38L1334,132Z" fill="#610e18" stroke="#610e18"/><path d="M-29,30L-42,131L45,49Z" fill="#9e182c" stroke="#9e182c"/><path d="M45,49L-42,131L47,126Z" fill="#b22f39" stroke="#b22f39"/><path d="M45,49L47,126L124,110Z" fill="#c23039" stroke="#c23039"/><path d="M45,49L124,110L127,36Z" fill="#c01f30" stroke="#c01f30"/><path d="M127,36L124,110L187,124Z" fill="#d23b3e" stroke="#d23b3e"/><path d="M127,36L187,124L214,50Z" fill="#d0373c" stroke="#d0373c"/><path d="M214,50L187,124L269,132Z" fill="#e35b4e" stroke="#e35b4e"/><path d="M214,50L269,132L294,55Z" fill="#e0564d" stroke="#e0564d"/><path d="M294,55L269,132L346,122Z" fill="#ee735f" stroke="#ee735f"/><path d="M294,55L346,122L370,25Z" fill="#e5665b" stroke="#e5665b"/><path d="M370,25L346,122L439,43Z" fill="#e76f67" stroke="#e76f67"/><path d="M439,43L346,122L452,131Z" fill="#f58d7b" stroke="#f58d7b"/><path d="M439,43L452,131L514,117Z" fill="#f6988b" stroke="#f6988b"/><path d="M439,43L514,117L509,28Z" fill="#e98483" stroke="#e98483"/><path d="M509,28L514,117L599,41Z" fill="#e78a8e" stroke="#e78a8e"/><path d="M599,41L514,117L606,112Z" fill="#f0a09e" stroke="#f0a09e"/><path d="M599,41L606,112L672,42Z" fill="#e08d95" stroke="#e08d95"/><path d="M672,42L606,112L676,115Z" fill="#e49b9d" stroke="#e49b9d"/><path d="M672,42L676,115L768,29Z" fill="#d08491" stroke="#d08491"/><path d="M768,29L676,115L764,133Z" fill="#d3949a" stroke="#d3949a"/><path d="M768,29L764,133L829,54Z" fill="#be808f" stroke="#be808f"/><path d="M829,54L764,133L828,116Z" fill="#c39097" stroke="#c39097"/><path d="M829,54L828,116L925,106Z" fill="#ae7e8e" stroke="#ae7e8e"/><path d="M829,54L925,106L926,39Z" fill="#996681" stroke="#996681"/><path d="M926,39L925,106L985,107Z" fill="#916781" stroke="#916781"/><path d="M926,39L985,107L986,38Z" fill="#875578" stroke="#875578"/><path d="M986,38L985,107L1067,118Z" fill="#895d7c" stroke="#895d7c"/><path d="M986,38L1067,118L1078,30Z" fill="#7b4670" stroke="#7b4670"/><path d="M1078,30L1067,118L1172,32Z" fill="#73365b" stroke="#73365b"/><path d="M1172,32L1067,118L1168,134Z" fill="#7c455e" stroke="#7c455e"/><path d="M1172,32L1168,134L1238,40Z" fill="#6d2742" stroke="#6d2742"/><path d="M1238,40L1168,134L1249,116Z" fill="#773443" stroke="#773443"/><path d="M1238,40L1249,116L1310,38Z" fill="#6c1529" stroke="#6c1529"/><path d="M1310,38L1249,116L1334,132Z" fill="#772929" stroke="#772929"/><path d="M-42,131L-46,196L35,193Z" fill="#ae5e59" stroke="#ae5e59"/><path d="M-42,131L35,193L47,126Z" fill="#b84f4e" stroke="#b84f4e"/><path d="M47,126L35,193L125,197Z" fill="#ca645c" stroke="#ca645c"/><path d="M47,126L125,197L124,110Z" fill="#d3544f" stroke="#d3544f"/><path d="M124,110L125,197L187,124Z" fill="#dd5e55" stroke="#dd5e55"/><path d="M187,124L125,197L192,212Z" fill="#e17d69" stroke="#e17d69"/><path d="M187,124L192,212L270,192Z" fill="#e88b70" stroke="#e88b70"/><path d="M187,124L270,192L269,132Z" fill="#ec8067" stroke="#ec8067"/><path d="M269,132L270,192L346,122Z" fill="#f39072" stroke="#f39072"/><path d="M346,122L270,192L372,191Z" fill="#f7a884" stroke="#f7a884"/><path d="M346,122L372,191L452,131Z" fill="#fba98a" stroke="#fba98a"/><path d="M452,131L372,191L431,204Z" fill="#fdc2a1" stroke="#fdc2a1"/><path d="M452,131L431,204L532,191Z" fill="#feceb0" stroke="#feceb0"/><path d="M452,131L532,191L514,117Z" fill="#fdbda7" stroke="#fdbda7"/><path d="M514,117L532,191L606,112Z" fill="#fcbfae" stroke="#fcbfae"/><path d="M606,112L532,191L610,201Z" fill="#fbd5c3" stroke="#fbd5c3"/><path d="M606,112L610,201L676,115Z" fill="#f3c0b4" stroke="#f3c0b4"/><path d="M676,115L610,201L677,211Z" fill="#efd5c4" stroke="#efd5c4"/><path d="M676,115L677,211L758,196Z" fill="#e6d0c2" stroke="#e6d0c2"/><path d="M676,115L758,196L764,133Z" fill="#debab2" stroke="#debab2"/><path d="M764,133L758,196L830,194Z" fill="#d0c5bc" stroke="#d0c5bc"/><path d="M764,133L830,194L828,116Z" fill="#caafac" stroke="#caafac"/><path d="M828,116L830,194L925,106Z" fill="#b89ea1" stroke="#b89ea1"/><path d="M925,106L830,194L934,203Z" fill="#acaaac" stroke="#acaaac"/><path d="M925,106L934,203L985,107Z" fill="#9e8c97" stroke="#9e8c97"/><path d="M985,107L934,203L1005,199Z" fill="#9a9ba5" stroke="#9a9ba5"/><path d="M985,107L1005,199L1067,118Z" fill="#947f92" stroke="#947f92"/><path d="M1067,118L1005,199L1066,207Z" fill="#9091a0" stroke="#9091a0"/><path d="M1067,118L1066,207L1165,193Z" fill="#89838d" stroke="#89838d"/><path d="M1067,118L1165,193L1168,134Z" fill="#856b76" stroke="#856b76"/><path d="M1168,134L1165,193L1245,190Z" fill="#806d6f" stroke="#806d6f"/><path d="M1168,134L1245,190L1249,116Z" fill="#805559" stroke="#805559"/><path d="M1249,116L1245,190L1334,132Z" fill="#804b46" stroke="#804b46"/><path d="M1334,132L1245,190L1334,215Z" fill="#80624e" stroke="#80624e"/><path d="M1334,132L1334,215L1335,595Z" fill="#7f8080" stroke="#7f8080"/><path d="M-46,196L-53,613L-45,271Z" fill="#a1808d" stroke="#a1808d"/><path d="M-46,196L-45,271L35,193Z" fill="#ad7677" stroke="#ad7677"/><path d="M35,193L-45,271L50,266Z" fill="#b88187" stroke="#b88187"/><path d="M35,193L50,266L125,197Z" fill="#ca7d7b" stroke="#ca7d7b"/><path d="M125,197L50,266L124,275Z" fill="#d48a8c" stroke="#d48a8c"/><path d="M125,197L124,275L192,212Z" fill="#de8f88" stroke="#de8f88"/><path d="M192,212L124,275L208,284Z" fill="#e29e97" stroke="#e29e97"/><path d="M192,212L208,284L270,192Z" fill="#e9a895" stroke="#e9a895"/><path d="M270,192L208,284L286,281Z" fill="#eeb7a5" stroke="#eeb7a5"/><path d="M270,192L286,281L347,283Z" fill="#f4c4af" stroke="#f4c4af"/><path d="M270,192L347,283L372,191Z" fill="#f7c4a7" stroke="#f7c4a7"/><path d="M372,191L347,283L431,204Z" fill="#fbd4b8" stroke="#fbd4b8"/><path d="M431,204L347,283L446,273Z" fill="#fce0cc" stroke="#fce0cc"/><path d="M431,204L446,273L513,281Z" fill="#feeddc" stroke="#feeddc"/><path d="M431,204L513,281L532,191Z" fill="#fee9d6" stroke="#fee9d6"/><path d="M532,191L513,281L598,293Z" fill="#fcf7ee" stroke="#fcf7ee"/><path d="M532,191L598,293L610,201Z" fill="#fbf5ea" stroke="#fbf5ea"/><path d="M610,201L598,293L670,273Z" fill="#f4f8f3" stroke="#f4f8f3"/><path d="M610,201L670,273L677,211Z" fill="#eff0e8" stroke="#eff0e8"/><path d="M677,211L670,273L757,274Z" fill="#e7f1f0" stroke="#e7f1f0"/><path d="M677,211L757,274L758,196Z" fill="#dfe7e3" stroke="#dfe7e3"/><path d="M758,196L757,274L839,267Z" fill="#d0e6e9" stroke="#d0e6e9"/><path d="M758,196L839,267L830,194Z" fill="#c9d8d7" stroke="#c9d8d7"/><path d="M830,194L839,267L934,203Z" fill="#b5cdd2" stroke="#b5cdd2"/><path d="M934,203L839,267L925,288Z" fill="#abcfdd" stroke="#abcfdd"/><path d="M934,203L925,288L991,289Z" fill="#9ec5d9" stroke="#9ec5d9"/><path d="M934,203L991,289L1005,199Z" fill="#9abbcc" stroke="#9abbcc"/><path d="M1005,199L991,289L1066,207Z" fill="#93b3c9" stroke="#93b3c9"/><path d="M1066,207L991,289L1085,287Z" fill="#90b2ce" stroke="#90b2ce"/><path d="M1066,207L1085,287L1152,271Z" fill="#89a5bc" stroke="#89a5bc"/><path d="M1066,207L1152,271L1165,193Z" fill="#8697a6" stroke="#8697a6"/><path d="M1165,193L1152,271L1230,285Z" fill="#8092a1" stroke="#8092a1"/><path d="M1165,193L1230,285L1245,190Z" fill="#808289" stroke="#808289"/><path d="M1245,190L1230,285L1306,267Z" fill="#808087" stroke="#808087"/><path d="M1245,190L1306,267L1334,215Z" fill="#807870" stroke="#807870"/><path d="M1334,215L1306,267L1317,355Z" fill="#80807d" stroke="#80807d"/><path d="M1334,215L1317,355L1322,442Z" fill="#7e8080" stroke="#7e8080"/><path d="M1334,215L1322,442L1335,595Z" fill="#597680" stroke="#597680"/><path d="M-45,271L-53,613L-41,526Z" fill="#555d84" stroke="#555d84"/><path d="M-45,271L-41,526L-32,428Z" fill="#86788d" stroke="#86788d"/><path d="M-45,271L-32,428L-30,374Z" fill="#a5808d" stroke="#a5808d"/><path d="M-45,271L-30,374L30,363Z" fill="#ac808e" stroke="#ac808e"/><path d="M-45,271L30,363L50,266Z" fill="#b78190" stroke="#b78190"/><path d="M50,266L30,363L109,358Z" fill="#c68693" stroke="#c68693"/><path d="M50,266L109,358L124,275Z" fill="#d28a94" stroke="#d28a94"/><path d="M124,275L109,358L192,347Z" fill="#db9499" stroke="#db9499"/><path d="M124,275L192,347L208,284Z" fill="#e29e9e" stroke="#e29e9e"/><path d="M208,284L192,347L286,281Z" fill="#eaafa6" stroke="#eaafa6"/><path d="M286,281L192,347L292,375Z" fill="#ecb7ac" stroke="#ecb7ac"/><path d="M286,281L292,375L347,283Z" fill="#f4c7b8" stroke="#f4c7b8"/><path d="M347,283L292,375L367,358Z" fill="#f6cfbe" stroke="#f6cfbe"/><path d="M347,283L367,358L446,273Z" fill="#fbdbcc" stroke="#fbdbcc"/><path d="M446,273L367,358L436,369Z" fill="#fbe2d5" stroke="#fbe2d5"/><path d="M446,273L436,369L513,281Z" fill="#feede4" stroke="#feede4"/><path d="M513,281L436,369L518,374Z" fill="#fcf0e9" stroke="#fcf0e9"/><path d="M513,281L518,374L588,360Z" fill="#faf6f3" stroke="#faf6f3"/><path d="M513,281L588,360L598,293Z" fill="#fbfaf9" stroke="#fbfaf9"/><path d="M598,293L588,360L667,358Z" fill="#f3f8fa" stroke="#f3f8fa"/><path d="M598,293L667,358L670,273Z" fill="#f0f6f9" stroke="#f0f6f9"/><path d="M670,273L667,358L757,274Z" fill="#e7f2f8" stroke="#e7f2f8"/><path d="M757,274L667,358L747,371Z" fill="#dfeef6" stroke="#dfeef6"/><path d="M757,274L747,371L837,351Z" fill="#d0e6f1" stroke="#d0e6f1"/><path d="M757,274L837,351L839,267Z" fill="#c9e2ee" stroke="#c9e2ee"/><path d="M839,267L837,351L925,288Z" fill="#b6d6e8" stroke="#b6d6e8"/><path d="M925,288L837,351L925,349Z" fill="#aad0e5" stroke="#aad0e5"/><path d="M925,288L925,349L991,289Z" fill="#9ec5df" stroke="#9ec5df"/><path d="M991,289L925,349L1001,365Z" fill="#99c0dd" stroke="#99c0dd"/><path d="M991,289L1001,365L1085,287Z" fill="#92b6d7" stroke="#92b6d7"/><path d="M1085,287L1001,365L1089,365Z" fill="#8cafd1" stroke="#8cafd1"/><path d="M1085,287L1089,365L1152,271Z" fill="#88a3c0" stroke="#88a3c0"/><path d="M1152,271L1089,365L1172,368Z" fill="#839db7" stroke="#839db7"/><path d="M1152,271L1172,368L1230,285Z" fill="#7f92a8" stroke="#7f92a8"/><path d="M1230,285L1172,368L1234,354Z" fill="#7e8b9f" stroke="#7e8b9f"/><path d="M1230,285L1234,354L1317,355Z" fill="#7e808f" stroke="#7e808f"/><path d="M1230,285L1317,355L1306,267Z" fill="#808087" stroke="#808087"/><path d="M-30,374L-32,428L30,363Z" fill="#9b7b8f" stroke="#9b7b8f"/><path d="M30,363L-32,428L41,446Z" fill="#947990" stroke="#947990"/><path d="M30,363L41,446L109,358Z" fill="#b28192" stroke="#b28192"/><path d="M109,358L41,446L122,454Z" fill="#a97f94" stroke="#a97f94"/><path d="M109,358L122,454L192,347Z" fill="#ca8f99" stroke="#ca8f99"/><path d="M192,347L122,454L199,452Z" fill="#bb939d" stroke="#bb939d"/><path d="M192,347L199,452L292,375Z" fill="#d4aaa6" stroke="#d4aaa6"/><path d="M292,375L199,452L294,435Z" fill="#c6afad" stroke="#c6afad"/><path d="M292,375L294,435L369,432Z" fill="#d1c1ba" stroke="#d1c1ba"/><path d="M292,375L369,432L367,358Z" fill="#e5ccc0" stroke="#e5ccc0"/><path d="M367,358L369,432L436,369Z" fill="#e8d8ce" stroke="#e8d8ce"/><path d="M436,369L369,432L438,448Z" fill="#d6d8d5" stroke="#d6d8d5"/><path d="M436,369L438,448L518,374Z" fill="#e5e7e3" stroke="#e5e7e3"/><path d="M518,374L438,448L529,429Z" fill="#d7e8ea" stroke="#d7e8ea"/><path d="M518,374L529,429L588,360Z" fill="#e8f3f4" stroke="#e8f3f4"/><path d="M588,360L529,429L599,434Z" fill="#dbf2fa" stroke="#dbf2fa"/><path d="M588,360L599,434L667,358Z" fill="#e3f4fa" stroke="#e3f4fa"/><path d="M667,358L599,434L679,429Z" fill="#d0eef9" stroke="#d0eef9"/><path d="M667,358L679,429L747,371Z" fill="#d5eef8" stroke="#d5eef8"/><path d="M747,371L679,429L749,451Z" fill="#bae5f5" stroke="#bae5f5"/><path d="M747,371L749,451L846,452Z" fill="#a5daf1" stroke="#a5daf1"/><path d="M747,371L846,452L837,351Z" fill="#b3ddef" stroke="#b3ddef"/><path d="M837,351L846,452L914,446Z" fill="#90cde8" stroke="#90cde8"/><path d="M837,351L914,446L925,349Z" fill="#9dcde5" stroke="#9dcde5"/><path d="M925,349L914,446L1001,365Z" fill="#8bc1df" stroke="#8bc1df"/><path d="M1001,365L914,446L1007,431Z" fill="#76b7dd" stroke="#76b7dd"/><path d="M1001,365L1007,431L1071,432Z" fill="#71aed7" stroke="#71aed7"/><path d="M1001,365L1071,432L1089,365Z" fill="#7bacd2" stroke="#7bacd2"/><path d="M1089,365L1071,432L1152,452Z" fill="#639bc2" stroke="#639bc2"/><path d="M1089,365L1152,452L1172,368Z" fill="#6c97b7" stroke="#6c97b7"/><path d="M1172,368L1152,452L1225,448Z" fill="#5687a8" stroke="#5687a8"/><path d="M1172,368L1225,448L1234,354Z" fill="#6a879f" stroke="#6a879f"/><path d="M1234,354L1225,448L1322,442Z" fill="#5b778f" stroke="#5b778f"/><path d="M1234,354L1322,442L1317,355Z" fill="#6e7c85" stroke="#6e7c85"/><path d="M-32,428L-41,526L41,446Z" fill="#635f86" stroke="#635f86"/><path d="M41,446L-41,526L44,526Z" fill="#5a5181" stroke="#5a5181"/><path d="M41,446L44,526L115,508Z" fill="#6d5985" stroke="#6d5985"/><path d="M41,446L115,508L122,454Z" fill="#83678b" stroke="#83678b"/><path d="M122,454L115,508L199,452Z" fill="#8d7190" stroke="#8d7190"/><path d="M199,452L115,508L209,508Z" fill="#877291" stroke="#877291"/><path d="M199,452L209,508L294,435Z" fill="#a0909f" stroke="#a0909f"/><path d="M294,435L209,508L277,532Z" fill="#938b9f" stroke="#938b9f"/><path d="M294,435L277,532L374,513Z" fill="#9a9bab" stroke="#9a9bab"/><path d="M294,435L374,513L369,432Z" fill="#b2b4b9" stroke="#b2b4b9"/><path d="M369,432L374,513L438,448Z" fill="#b1bdc7" stroke="#b1bdc7"/><path d="M438,448L374,513L455,509Z" fill="#a2b8ca" stroke="#a2b8ca"/><path d="M438,448L455,509L505,511Z" fill="#a4c2d7" stroke="#a4c2d7"/><path d="M438,448L505,511L529,429Z" fill="#b4d2e1" stroke="#b4d2e1"/><path d="M529,429L505,511L599,434Z" fill="#b7dbed" stroke="#b7dbed"/><path d="M599,434L505,511L614,519Z" fill="#a1cfed" stroke="#a1cfed"/><path d="M599,434L614,519L679,429Z" fill="#abd9f2" stroke="#abd9f2"/><path d="M679,429L614,519L681,522Z" fill="#94c9ec" stroke="#94c9ec"/><path d="M679,429L681,522L749,451Z" fill="#99d0ef" stroke="#99d0ef"/><path d="M749,451L681,522L750,509Z" fill="#84c0e7" stroke="#84c0e7"/><path d="M749,451L750,509L841,510Z" fill="#77bae4" stroke="#77bae4"/><path d="M749,451L841,510L846,452Z" fill="#78bfe6" stroke="#78bfe6"/><path d="M846,452L841,510L925,507Z" fill="#5aa9db" stroke="#5aa9db"/><path d="M846,452L925,507L914,446Z" fill="#5eaedc" stroke="#5eaedc"/><path d="M914,446L925,507L1007,431Z" fill="#56a6d8" stroke="#56a6d8"/><path d="M1007,431L925,507L1001,527Z" fill="#4094cf" stroke="#4094cf"/><path d="M1007,431L1001,527L1070,521Z" fill="#3788c9" stroke="#3788c9"/><path d="M1007,431L1070,521L1071,432Z" fill="#4793cc" stroke="#4793cc"/><path d="M1071,432L1070,521L1152,452Z" fill="#3c84bb" stroke="#3c84bb"/><path d="M1152,452L1070,521L1166,511Z" fill="#2970ac" stroke="#2970ac"/><path d="M1152,452L1166,511L1225,448Z" fill="#306fa0" stroke="#306fa0"/><path d="M1225,448L1166,511L1241,520Z" fill="#245e91" stroke="#245e91"/><path d="M1225,448L1241,520L1322,442Z" fill="#315d85" stroke="#315d85"/><path d="M1322,442L1241,520L1310,526Z" fill="#235177" stroke="#235177"/><path d="M1322,442L1310,526L1335,595Z" fill="#1b466b" stroke="#1b466b"/><path d="M-41,526L-53,613L37,607Z" fill="#402756" stroke="#402756"/><path d="M-41,526L37,607L44,526Z" fill="#4b386e" stroke="#4b386e"/><path d="M44,526L37,607L114,615Z" fill="#5b2d5a" stroke="#5b2d5a"/><path d="M44,526L114,615L115,508Z" fill="#644274" stroke="#644274"/><path d="M115,508L114,615L212,609Z" fill="#713f65" stroke="#713f65"/><path d="M115,508L212,609L209,508Z" fill="#775c85" stroke="#775c85"/><path d="M209,508L212,609L277,532Z" fill="#7e6987" stroke="#7e6987"/><path d="M277,532L212,609L291,608Z" fill="#815f74" stroke="#815f74"/><path d="M277,532L291,608L356,599Z" fill="#876f82" stroke="#876f82"/><path d="M277,532L356,599L374,513Z" fill="#8c88a0" stroke="#8c88a0"/><path d="M374,513L356,599L442,604Z" fill="#8e899d" stroke="#8e899d"/><path d="M374,513L442,604L455,509Z" fill="#91a1bd" stroke="#91a1bd"/><path d="M455,509L442,604L510,590Z" fill="#919cb7" stroke="#919cb7"/><path d="M455,509L510,590L505,511Z" fill="#93afd1" stroke="#93afd1"/><path d="M505,511L510,590L614,519Z" fill="#91b4db" stroke="#91b4db"/><path d="M614,519L510,590L604,594Z" fill="#8ea9ce" stroke="#8ea9ce"/><path d="M614,519L604,594L681,522Z" fill="#86b2de" stroke="#86b2de"/><path d="M681,522L604,594L691,609Z" fill="#81a0c6" stroke="#81a0c6"/><path d="M681,522L691,609L750,509Z" fill="#79abd9" stroke="#79abd9"/><path d="M750,509L691,609L766,608Z" fill="#7097c2" stroke="#7097c2"/><path d="M750,509L766,608L838,596Z" fill="#6393c1" stroke="#6393c1"/><path d="M750,509L838,596L841,510Z" fill="#5ea0d6" stroke="#5ea0d6"/><path d="M841,510L838,596L925,507Z" fill="#4a94d0" stroke="#4a94d0"/><path d="M925,507L838,596L909,614Z" fill="#407db5" stroke="#407db5"/><path d="M925,507L909,614L1001,527Z" fill="#327ec0" stroke="#327ec0"/><path d="M1001,527L909,614L998,614Z" fill="#2d66a3" stroke="#2d66a3"/><path d="M1001,527L998,614L1076,601Z" fill="#255ea0" stroke="#255ea0"/><path d="M1001,527L1076,601L1070,521Z" fill="#236ab4" stroke="#236ab4"/><path d="M1070,521L1076,601L1149,594Z" fill="#1c5293" stroke="#1c5293"/><path d="M1070,521L1149,594L1166,511Z" fill="#1a5ba0" stroke="#1a5ba0"/><path d="M1166,511L1149,594L1241,520Z" fill="#144e8e" stroke="#144e8e"/><path d="M1241,520L1149,594L1250,603Z" fill="#13376e" stroke="#13376e"/><path d="M1241,520L1250,603L1310,526Z" fill="#13386e" stroke="#13386e"/><path d="M1310,526L1250,603L1335,595Z" fill="#132b50" stroke="#132b50"/><path d="M-53,613L-38,760L-30,671Z" fill="#36000e" stroke="#36000e"/><path d="M-53,613L-30,671L37,607Z" fill="#3f0d32" stroke="#3f0d32"/><path d="M37,607L-30,671L29,666Z" fill="#480526" stroke="#480526"/><path d="M37,607L29,666L114,615Z" fill="#581437" stroke="#581437"/><path d="M114,615L29,666L123,679Z" fill="#600a26" stroke="#600a26"/><path d="M114,615L123,679L188,690Z" fill="#6d1426" stroke="#6d1426"/><path d="M114,615L188,690L212,609Z" fill="#72263b" stroke="#72263b"/><path d="M212,609L188,690L288,681Z" fill="#7a3033" stroke="#7a3033"/><path d="M212,609L288,681L291,608Z" fill="#804550" stroke="#804550"/><path d="M291,608L288,681L352,680Z" fill="#854849" stroke="#854849"/><path d="M291,608L352,680L356,599Z" fill="#895c62" stroke="#895c62"/><path d="M356,599L352,680L436,680Z" fill="#8c5c5e" stroke="#8c5c5e"/><path d="M356,599L436,680L442,604Z" fill="#8d707a" stroke="#8d707a"/><path d="M442,604L436,680L526,685Z" fill="#8e6e75" stroke="#8e6e75"/><path d="M442,604L526,685L510,590Z" fill="#8e8090" stroke="#8e8090"/><path d="M510,590L526,685L604,594Z" fill="#8e889e" stroke="#8e889e"/><path d="M604,594L526,685L605,677Z" fill="#8c7d8f" stroke="#8c7d8f"/><path d="M604,594L605,677L691,609Z" fill="#8387a0" stroke="#8387a0"/><path d="M691,609L605,677L680,683Z" fill="#7e7689" stroke="#7e7689"/><path d="M691,609L680,683L755,693Z" fill="#757183" stroke="#757183"/><path d="M691,609L755,693L766,608Z" fill="#6e7693" stroke="#6e7693"/><path d="M766,608L755,693L825,692Z" fill="#61677b" stroke="#61677b"/><path d="M766,608L825,692L838,596Z" fill="#5a6f91" stroke="#5a6f91"/><path d="M838,596L825,692L909,614Z" fill="#4a648a" stroke="#4a648a"/><path d="M909,614L825,692L916,680Z" fill="#405373" stroke="#405373"/><path d="M909,614L916,680L993,669Z" fill="#2f4772" stroke="#2f4772"/><path d="M909,614L993,669L998,614Z" fill="#2c4e80" stroke="#2c4e80"/><path d="M998,614L993,669L1076,601Z" fill="#24457d" stroke="#24457d"/><path d="M1076,601L993,669L1076,693Z" fill="#203266" stroke="#203266"/><path d="M1076,601L1076,693L1160,689Z" fill="#19254f" stroke="#19254f"/><path d="M1076,601L1160,689L1149,594Z" fill="#172d5f" stroke="#172d5f"/><path d="M1149,594L1160,689L1235,683Z" fill="#10133a" stroke="#10133a"/><path d="M1149,594L1235,683L1250,603Z" fill="#111b46" stroke="#111b46"/><path d="M1250,603L1235,683L1323,665Z" fill="#100221" stroke="#100221"/><path d="M1250,603L1323,665L1335,595Z" fill="#11122c" stroke="#11122c"/><path d="M1335,595L1323,665L1333,763Z" fill="#0f0003" stroke="#0f0003"/><path d="M-30,671L-38,760L26,762Z" fill="#3c000f" stroke="#3c000f"/><path d="M-30,671L26,762L29,666Z" fill="#440110" stroke="#440110"/><path d="M29,666L26,762L123,679Z" fill="#550613" stroke="#550613"/><path d="M123,679L26,762L132,760Z" fill="#5f0a15" stroke="#5f0a15"/><path d="M123,679L132,760L188,690Z" fill="#6c161a" stroke="#6c161a"/><path d="M188,690L132,760L210,748Z" fill="#701f1f" stroke="#701f1f"/><path d="M188,690L210,748L288,681Z" fill="#792f26" stroke="#792f26"/><path d="M288,681L210,748L287,763Z" fill="#7c392e" stroke="#7c392e"/><path d="M288,681L287,763L352,680Z" fill="#834738" stroke="#834738"/><path d="M352,680L287,763L352,771Z" fill="#854e3d" stroke="#854e3d"/><path d="M352,680L352,771L427,766Z" fill="#885a4a" stroke="#885a4a"/><path d="M352,680L427,766L436,680Z" fill="#8a6052" stroke="#8a6052"/><path d="M436,680L427,766L524,752Z" fill="#8c6e63" stroke="#8c6e63"/><path d="M436,680L524,752L526,685Z" fill="#8c726a" stroke="#8c726a"/><path d="M526,685L524,752L607,749Z" fill="#897976" stroke="#897976"/><path d="M526,685L607,749L605,677Z" fill="#8a7c7c" stroke="#8a7c7c"/><path d="M605,677L607,749L680,683Z" fill="#81787a" stroke="#81787a"/><path d="M680,683L607,749L683,765Z" fill="#7c7679" stroke="#7c7679"/><path d="M680,683L683,765L755,693Z" fill="#737177" stroke="#737177"/><path d="M755,693L683,765L761,757Z" fill="#6b6d75" stroke="#6b6d75"/><path d="M755,693L761,757L825,692Z" fill="#5f6772" stroke="#5f6772"/><path d="M825,692L761,757L855,768Z" fill="#55626f" stroke="#55626f"/><path d="M825,692L855,768L916,680Z" fill="#455769" stroke="#455769"/><path d="M916,680L855,768L929,751Z" fill="#384f65" stroke="#384f65"/><path d="M916,680L929,751L993,669Z" fill="#2d4660" stroke="#2d4660"/><path d="M993,669L929,751L1007,760Z" fill="#28405d" stroke="#28405d"/><path d="M993,669L1007,760L1076,693Z" fill="#213758" stroke="#213758"/><path d="M1076,693L1007,760L1080,749Z" fill="#1c3052" stroke="#1c3052"/><path d="M1076,693L1080,749L1146,755Z" fill="#172643" stroke="#172643"/><path d="M1076,693L1146,755L1160,689Z" fill="#141f3b" stroke="#141f3b"/><path d="M1160,689L1146,755L1243,746Z" fill="#0d1229" stroke="#0d1229"/><path d="M1160,689L1243,746L1235,683Z" fill="#0e0c1f" stroke="#0e0c1f"/><path d="M1235,683L1243,746L1323,665Z" fill="#0f000e" stroke="#0f000e"/><path d="M1323,665L1243,746L1333,763Z" fill="#0e0003" stroke="#0e0003"/><path d="M26,762L352,771L132,760Z" fill="#6e1d1e" stroke="#6e1d1e"/><path d="M132,760L352,771L287,763Z" fill="#7b382d" stroke="#7b382d"/><path d="M132,760L287,763L210,748Z" fill="#742924" stroke="#742924"/><path d="M352,771L855,768L683,765Z" fill="#7f787a" stroke="#7f787a"/><path d="M352,771L683,765L427,766Z" fill="#8a7169" stroke="#8a7169"/><path d="M427,766L683,765L524,752Z" fill="#897875" stroke="#897875"/><path d="M524,752L683,765L607,749Z" fill="#847a7b" stroke="#847a7b"/><path d="M683,765L855,768L761,757Z" fill="#616973" stroke="#616973"/><path d="M855,768L1333,763L1007,760Z" fill="#1a2e4f" stroke="#1a2e4f"/><path d="M855,768L1007,760L929,751Z" fill="#2d4961" stroke="#2d4961"/><path d="M1007,760L1333,763L1146,755Z" fill="#0e1730" stroke="#0e1730"/><path d="M1007,760L1146,755L1080,749Z" fill="#192b4b" stroke="#192b4b"/><path d="M1146,755L1333,763L1243,746Z" fill="#0d0516" stroke="#0d0516"/></g></svg>