<svg width="1274" height="661" xmlns="http://www.w3.org/2000/svg"><g><path d="M-42,-27L-55,122L-32,50Z" fill="#f3feff" stroke="#f3feff"/><path d="M-42,-27L-32,50L49,32Z" fill="#f4fcfe" stroke="#f4fcfe"/><path d="M-42,-27L49,32L44,-54Z" fill="#f4fbfc" stroke="#f4fbfc"/><path d="M44,-54L49,32L115,-48Z" fill="#eef9fa" stroke="#eef9fa"/><path d="M44,-54L115,-48L290,-50Z" fill="#e5f5f6" stroke="#e5f5f6"/><path d="M44,-54L290,-50L590,-55Z" fill="#d1edea" stroke="#d1edea"/><path d="M115,-48L49,32L133,38Z" fill="#eaf7f8" stroke="#eaf7f8"/><path d="M115,-48L133,38L207,-36Z" fill="#e5f5f6" stroke="#e5f5f6"/><path d="M115,-48L207,-36L290,-50Z" fill="#dff3f3" stroke="#dff3f3"/><path d="M207,-36L133,38L196,28Z" fill="#e0f4f4" stroke="#e0f4f4"/><path d="M207,-36L196,28L289,35Z" fill="#daf2f2" stroke="#daf2f2"/><path d="M207,-36L289,35L290,-50Z" fill="#d8f0f0" stroke="#d8f0f0"/><path d="M290,-50L289,35L352,-26Z" fill="#d0edea" stroke="#d0edea"/><path d="M290,-50L352,-26L428,-34Z" fill="#caeae4" stroke="#caeae4"/><path d="M290,-50L428,-34L511,-42Z" fill="#c2e7de" stroke="#c2e7de"/><path d="M290,-50L511,-42L590,-55Z" fill="#bae4d7" stroke="#bae4d7"/><path d="M352,-26L289,35L365,37Z" fill="#caece7" stroke="#caece7"/><path d="M352,-26L365,37L428,-34Z" fill="#c6e9e1" stroke="#c6e9e1"/><path d="M428,-34L365,37L443,30Z" fill="#bfe7de" stroke="#bfe7de"/><path d="M428,-34L443,30L511,-42Z" fill="#bae4d8" stroke="#bae4d8"/><path d="M511,-42L443,30L531,55Z" fill="#b2e2d4" stroke="#b2e2d4"/><path d="M511,-42L531,55L590,-55Z" fill="#afdfcd" stroke="#afdfcd"/><path d="M590,-55L531,55L611,38Z" fill="#a9dcc9" stroke="#a9dcc9"/><path d="M590,-55L611,38L675,-44Z" fill="#a6d9c2" stroke="#a6d9c2"/><path d="M590,-55L675,-44L765,-54Z" fill="#a0d6bb" stroke="#a0d6bb"/><path d="M675,-44L611,38L689,25Z" fill="#a1d7be" stroke="#a1d7be"/><path d="M675,-44L689,25L765,-54Z" fill="#9cd4b7" stroke="#9cd4b7"/><path d="M765,-54L689,25L751,43Z" fill="#98d3b3" stroke="#98d3b3"/><path d="M765,-54L751,43L832,-27Z" fill="#94cfad" stroke="#94cfad"/><path d="M765,-54L832,-27L909,-43Z" fill="#90c9a8" stroke="#90c9a8"/><path d="M765,-54L909,-43L1171,-50Z" fill="#86be9d" stroke="#86be9d"/><path d="M832,-27L751,43L853,47Z" fill="#8eccaa" stroke="#8eccaa"/><path d="M832,-27L853,47L909,-43Z" fill="#8dc6a5" stroke="#8dc6a5"/><path d="M909,-43L853,47L919,39Z" fill="#88c3a2" stroke="#88c3a2"/><path d="M909,-43L919,39L987,-37Z" fill="#87bf9e" stroke="#87bf9e"/><path d="M909,-43L987,-37L1171,-50Z" fill="#80b695" stroke="#80b695"/><path d="M987,-37L919,39L1002,32Z" fill="#82bb9b" stroke="#82bb9b"/><path d="M987,-37L1002,32L1075,-31Z" fill="#80b696" stroke="#80b696"/><path d="M987,-37L1075,-31L1171,-50Z" fill="#80b090" stroke="#80b090"/><path d="M1075,-31L1002,32L1073,45Z" fill="#7db393" stroke="#7db393"/><path d="M1075,-31L1073,45L1165,46Z" fill="#7cad8d" stroke="#7cad8d"/><path d="M1075,-31L1165,46L1171,-50Z" fill="#80aa8a" stroke="#80aa8a"/><path d="M1171,-50L1165,46L1245,30Z" fill="#7ea484" stroke="#7ea484"/><path d="M1171,-50L1245,30L1243,-49Z" fill="#80a182" stroke="#80a182"/><path d="M1243,-49L1245,30L1314,-28Z" fill="#809c80" stroke="#809c80"/><path d="M1314,-28L1245,30L1328,51Z" fill="#7d9980" stroke="#7d9980"/><path d="M-32,50L-55,122L43,127Z" fill="#e8fcfe" stroke="#e8fcfe"/><path d="M-32,50L43,127L49,32Z" fill="#e8fbfc" stroke="#e8fbfc"/><path d="M49,32L43,127L120,130Z" fill="#dff9fa" stroke="#dff9fa"/><path d="M49,32L120,130L133,38Z" fill="#e0f7f8" stroke="#e0f7f8"/><path d="M133,38L120,130L212,127Z" fill="#d4f5f6" stroke="#d4f5f6"/><path d="M133,38L212,127L196,28Z" fill="#d7f4f4" stroke="#d7f4f4"/><path d="M196,28L212,127L276,106Z" fill="#cef2f2" stroke="#cef2f2"/><path d="M196,28L276,106L289,35Z" fill="#d0f1f1" stroke="#d0f1f1"/><path d="M289,35L276,106L346,113Z" fill="#c3eeeb" stroke="#c3eeeb"/><path d="M289,35L346,113L365,37Z" fill="#c3ece7" stroke="#c3ece7"/><path d="M365,37L346,113L443,126Z" fill="#b6e9e1" stroke="#b6e9e1"/><path d="M365,37L443,126L443,30Z" fill="#b6e7dd" stroke="#b6e7dd"/><path d="M443,30L443,126L531,55Z" fill="#ade3d6" stroke="#ade3d6"/><path d="M531,55L443,126L523,115Z" fill="#a4e1d3" stroke="#a4e1d3"/><path d="M531,55L523,115L608,114Z" fill="#9edecc" stroke="#9edecc"/><path d="M531,55L608,114L611,38Z" fill="#9fdcc8" stroke="#9fdcc8"/><path d="M611,38L608,114L691,109Z" fill="#96d9c1" stroke="#96d9c1"/><path d="M611,38L691,109L689,25Z" fill="#98d7bd" stroke="#98d7bd"/><path d="M689,25L691,109L751,43Z" fill="#92d4b7" stroke="#92d4b7"/><path d="M751,43L691,109L763,131Z" fill="#8ad3b3" stroke="#8ad3b3"/><path d="M751,43L763,131L853,47Z" fill="#88cead" stroke="#88cead"/><path d="M853,47L763,131L847,127Z" fill="#80cbaa" stroke="#80cbaa"/><path d="M853,47L847,127L906,127Z" fill="#7cc6a5" stroke="#7cc6a5"/><path d="M853,47L906,127L919,39Z" fill="#7fc3a2" stroke="#7fc3a2"/><path d="M919,39L906,127L1004,112Z" fill="#77be9d" stroke="#77be9d"/><path d="M919,39L1004,112L1002,32Z" fill="#7abb9a" stroke="#7abb9a"/><path d="M1002,32L1004,112L1073,45Z" fill="#76b695" stroke="#76b695"/><path d="M1073,45L1004,112L1083,107Z" fill="#71b392" stroke="#71b392"/><path d="M1073,45L1083,107L1165,46Z" fill="#75ad8d" stroke="#75ad8d"/><path d="M1165,46L1083,107L1166,105Z" fill="#72aa8a" stroke="#72aa8a"/><path d="M1165,46L1166,105L1229,112Z" fill="#71a585" stroke="#71a585"/><path d="M1165,46L1229,112L1245,30Z" fill="#76a282" stroke="#76a282"/><path d="M1245,30L1229,112L1328,51Z" fill="#759c80" stroke="#759c80"/><path d="M1328,51L1229,112L1333,132Z" fill="#709980" stroke="#709980"/><path d="M-55,122L-44,748L-38,453Z" fill="#8ed4ae" stroke="#8ed4ae"/><path d="M-55,122L-38,453L-37,357Z" fill="#acebd3" stroke="#acebd3"/><path d="M-55,122L-37,357L-30,286Z" fill="#bbf3e4" stroke="#bbf3e4"/><path d="M-55,122L-30,286L-35,194Z" fill="#cef7f0" stroke="#cef7f0"/><path d="M-55,122L-35,194L43,127Z" fill="#ddfbfb" stroke="#ddfbfb"/><path d="M43,127L-35,194L37,213Z" fill="#cff7f3" stroke="#cff7f3"/><path d="M43,127L37,213L116,194Z" fill="#c9f5f0" stroke="#c9f5f0"/><path d="M43,127L116,194L120,130Z" fill="#d0f6f5" stroke="#d0f6f5"/><path d="M120,130L116,194L196,198Z" fill="#c2f2ed" stroke="#c2f2ed"/><path d="M120,130L196,198L212,127Z" fill="#c6f2f0" stroke="#c6f2f0"/><path d="M212,127L196,198L285,187Z" fill="#b9eee9" stroke="#b9eee9"/><path d="M212,127L285,187L276,106Z" fill="#c0f0ef" stroke="#c0f0ef"/><path d="M276,106L285,187L346,113Z" fill="#bbedea" stroke="#bbedea"/><path d="M346,113L285,187L371,193Z" fill="#ace9e0" stroke="#ace9e0"/><path d="M346,113L371,193L443,126Z" fill="#ace7de" stroke="#ace7de"/><path d="M443,126L371,193L427,193Z" fill="#9fe3d5" stroke="#9fe3d5"/><path d="M443,126L427,193L518,202Z" fill="#96e0ce" stroke="#96e0ce"/><path d="M443,126L518,202L523,115Z" fill="#9ae0d0" stroke="#9ae0d0"/><path d="M523,115L518,202L603,186Z" fill="#8ddbc5" stroke="#8ddbc5"/><path d="M523,115L603,186L608,114Z" fill="#93dcc7" stroke="#93dcc7"/><path d="M608,114L603,186L691,192Z" fill="#84d6ba" stroke="#84d6ba"/><path d="M608,114L691,192L691,109Z" fill="#8ad7bb" stroke="#8ad7bb"/><path d="M691,109L691,192L763,131Z" fill="#82d3b3" stroke="#82d3b3"/><path d="M763,131L691,192L763,209Z" fill="#74cea9" stroke="#74cea9"/><path d="M763,131L763,209L841,202Z" fill="#6ecaa2" stroke="#6ecaa2"/><path d="M763,131L841,202L847,127Z" fill="#74c9a5" stroke="#74c9a5"/><path d="M847,127L841,202L916,193Z" fill="#69c29b" stroke="#69c29b"/><path d="M847,127L916,193L906,127Z" fill="#6fc29f" stroke="#6fc29f"/><path d="M906,127L916,193L1009,186Z" fill="#64bb95" stroke="#64bb95"/><path d="M906,127L1009,186L1004,112Z" fill="#6bba98" stroke="#6bba98"/><path d="M1004,112L1009,186L1083,107Z" fill="#69b494" stroke="#69b494"/><path d="M1083,107L1009,186L1078,215Z" fill="#5daf8a" stroke="#5daf8a"/><path d="M1083,107L1078,215L1173,186Z" fill="#5da984" stroke="#5da984"/><path d="M1083,107L1173,186L1166,105Z" fill="#6aaa8a" stroke="#6aaa8a"/><path d="M1166,105L1173,186L1229,112Z" fill="#6aa584" stroke="#6aa584"/><path d="M1229,112L1173,186L1238,198Z" fill="#5f9f7b" stroke="#5f9f7b"/><path d="M1229,112L1238,198L1319,192Z" fill="#5e9a78" stroke="#5e9a78"/><path d="M1229,112L1319,192L1333,132Z" fill="#66997d" stroke="#66997d"/><path d="M1333,132L1319,192L1323,279Z" fill="#539070" stroke="#539070"/><path d="M1333,132L1323,279L1321,349Z" fill="#418b65" stroke="#418b65"/><path d="M1333,132L1321,349L1322,518Z" fill="#2b804d" stroke="#2b804d"/><path d="M1333,132L1322,518L1321,770Z" fill="#0b6527" stroke="#0b6527"/><path d="M-35,194L-30,286L37,213Z" fill="#c0f3e8" stroke="#c0f3e8"/><path d="M37,213L-30,286L54,276Z" fill="#b3efe0" stroke="#b3efe0"/><path d="M37,213L54,276L116,194Z" fill="#b8f0e4" stroke="#b8f0e4"/><path d="M116,194L54,276L117,294Z" fill="#aceddd" stroke="#aceddd"/><path d="M116,194L117,294L196,198Z" fill="#afede1" stroke="#afede1"/><path d="M196,198L117,294L206,292Z" fill="#a0e9d8" stroke="#a0e9d8"/><path d="M196,198L206,292L285,187Z" fill="#a6e9dd" stroke="#a6e9dd"/><path d="M285,187L206,292L290,295Z" fill="#97e5d4" stroke="#97e5d4"/><path d="M285,187L290,295L364,290Z" fill="#90e2ce" stroke="#90e2ce"/><path d="M285,187L364,290L371,193Z" fill="#97e3d2" stroke="#97e3d2"/><path d="M371,193L364,290L427,193Z" fill="#8fe0cc" stroke="#8fe0cc"/><path d="M427,193L364,290L439,290Z" fill="#81dcc2" stroke="#81dcc2"/><path d="M427,193L439,290L518,202Z" fill="#83dbc2" stroke="#83dbc2"/><path d="M518,202L439,290L526,269Z" fill="#76d7b9" stroke="#76d7b9"/><path d="M518,202L526,269L603,186Z" fill="#7bd6b9" stroke="#7bd6b9"/><path d="M603,186L526,269L602,284Z" fill="#6ed2af" stroke="#6ed2af"/><path d="M603,186L602,284L680,277Z" fill="#68cfa8" stroke="#68cfa8"/><path d="M603,186L680,277L691,192Z" fill="#6fcfab" stroke="#6fcfab"/><path d="M691,192L680,277L763,209Z" fill="#66cca1" stroke="#66cca1"/><path d="M763,209L680,277L770,270Z" fill="#5ac798" stroke="#5ac798"/><path d="M763,209L770,270L841,202Z" fill="#5dc598" stroke="#5dc598"/><path d="M841,202L770,270L845,282Z" fill="#53c08f" stroke="#53c08f"/><path d="M841,202L845,282L916,193Z" fill="#57be90" stroke="#57be90"/><path d="M916,193L845,282L920,286Z" fill="#4bb887" stroke="#4bb887"/><path d="M916,193L920,286L1003,289Z" fill="#46b382" stroke="#46b382"/><path d="M916,193L1003,289L1009,186Z" fill="#4fb386" stroke="#4fb386"/><path d="M1009,186L1003,289L1078,215Z" fill="#49ac7f" stroke="#49ac7f"/><path d="M1078,215L1003,289L1076,273Z" fill="#3fa776" stroke="#3fa776"/><path d="M1078,215L1076,273L1152,280Z" fill="#40a372" stroke="#40a372"/><path d="M1078,215L1152,280L1173,186Z" fill="#4aa275" stroke="#4aa275"/><path d="M1173,186L1152,280L1238,282Z" fill="#429a6b" stroke="#429a6b"/><path d="M1173,186L1238,282L1238,198Z" fill="#4b9a6e" stroke="#4b9a6e"/><path d="M1238,198L1238,282L1323,279Z" fill="#419265" stroke="#419265"/><path d="M1238,198L1323,279L1319,192Z" fill="#4b926b" stroke="#4b926b"/><path d="M-30,286L-37,357L37,355Z" fill="#a2e6cb" stroke="#a2e6cb"/><path d="M-30,286L37,355L54,276Z" fill="#a6e9d2" stroke="#a6e9d2"/><path d="M54,276L37,355L116,347Z" fill="#9be4c9" stroke="#9be4c9"/><path d="M54,276L116,347L117,294Z" fill="#9de6ce" stroke="#9de6ce"/><path d="M117,294L116,347L206,292Z" fill="#96e3ca" stroke="#96e3ca"/><path d="M206,292L116,347L189,369Z" fill="#8ddec1" stroke="#8ddec1"/><path d="M206,292L189,369L281,373Z" fill="#84dbbc" stroke="#84dbbc"/><path d="M206,292L281,373L290,295Z" fill="#87dcc1" stroke="#87dcc1"/><path d="M290,295L281,373L372,358Z" fill="#78d6b4" stroke="#78d6b4"/><path d="M290,295L372,358L364,290Z" fill="#7cd8b9" stroke="#7cd8b9"/><path d="M364,290L372,358L439,290Z" fill="#75d5b4" stroke="#75d5b4"/><path d="M439,290L372,358L442,350Z" fill="#6bd1aa" stroke="#6bd1aa"/><path d="M439,290L442,350L534,346Z" fill="#64cea5" stroke="#64cea5"/><path d="M439,290L534,346L526,269Z" fill="#68d0aa" stroke="#68d0aa"/><path d="M526,269L534,346L602,284Z" fill="#62cda3" stroke="#62cda3"/><path d="M602,284L534,346L607,365Z" fill="#56c796" stroke="#56c796"/><path d="M602,284L607,365L674,365Z" fill="#4fc38d" stroke="#4fc38d"/><path d="M602,284L674,365L680,277Z" fill="#54c593" stroke="#54c593"/><path d="M680,277L674,365L761,365Z" fill="#47be83" stroke="#47be83"/><path d="M680,277L761,365L770,270Z" fill="#4bc189" stroke="#4bc189"/><path d="M770,270L761,365L845,282Z" fill="#45bc82" stroke="#45bc82"/><path d="M845,282L761,365L854,370Z" fill="#3ab475" stroke="#3ab475"/><path d="M845,282L854,370L920,286Z" fill="#3db278" stroke="#3db278"/><path d="M920,286L854,370L923,368Z" fill="#33ac6c" stroke="#33ac6c"/><path d="M920,286L923,368L996,359Z" fill="#30a769" stroke="#30a769"/><path d="M920,286L996,359L1003,289Z" fill="#35a96e" stroke="#35a96e"/><path d="M1003,289L996,359L1070,353Z" fill="#2ba062" stroke="#2ba062"/><path d="M1003,289L1070,353L1076,273Z" fill="#32a169" stroke="#32a169"/><path d="M1076,273L1070,353L1152,280Z" fill="#339c64" stroke="#339c64"/><path d="M1152,280L1070,353L1162,349Z" fill="#2c9659" stroke="#2c9659"/><path d="M1152,280L1162,349L1238,282Z" fill="#33945b" stroke="#33945b"/><path d="M1238,282L1162,349L1234,347Z" fill="#2d8d52" stroke="#2d8d52"/><path d="M1238,282L1234,347L1321,349Z" fill="#2d884f" stroke="#2d884f"/><path d="M1238,282L1321,349L1323,279Z" fill="#338856" stroke="#338856"/><path d="M-37,357L-38,453L37,355Z" fill="#94deb9" stroke="#94deb9"/><path d="M37,355L-38,453L50,451Z" fill="#8ad7b0" stroke="#8ad7b0"/><path d="M37,355L50,451L117,434Z" fill="#85d6af" stroke="#85d6af"/><path d="M37,355L117,434L116,347Z" fill="#8bdbb7" stroke="#8bdbb7"/><path d="M116,347L117,434L189,369Z" fill="#84d9b3" stroke="#84d9b3"/><path d="M189,369L117,434L204,450Z" fill="#79d0a9" stroke="#79d0a9"/><path d="M189,369L204,450L275,427Z" fill="#73cfa7" stroke="#73cfa7"/><path d="M189,369L275,427L281,373Z" fill="#76d3ac" stroke="#76d3ac"/><path d="M281,373L275,427L347,428Z" fill="#6acca1" stroke="#6acca1"/><path d="M281,373L347,428L372,358Z" fill="#6acea3" stroke="#6acea3"/><path d="M372,358L347,428L437,426Z" fill="#5ec898" stroke="#5ec898"/><path d="M372,358L437,426L442,350Z" fill="#60ca9c" stroke="#60ca9c"/><path d="M442,350L437,426L534,346Z" fill="#59c796" stroke="#59c796"/><path d="M534,346L437,426L514,450Z" fill="#4dc08a" stroke="#4dc08a"/><path d="M534,346L514,450L588,441Z" fill="#46bc82" stroke="#46bc82"/><path d="M534,346L588,441L607,365Z" fill="#49c086" stroke="#49c086"/><path d="M607,365L588,441L687,446Z" fill="#3cb576" stroke="#3cb576"/><path d="M607,365L687,446L674,365Z" fill="#3eb978" stroke="#3eb978"/><path d="M674,365L687,446L761,365Z" fill="#38b671" stroke="#38b671"/><path d="M761,365L687,446L765,442Z" fill="#2fae67" stroke="#2fae67"/><path d="M761,365L765,442L854,370Z" fill="#2faf67" stroke="#2faf67"/><path d="M854,370L765,442L845,448Z" fill="#27a65d" stroke="#27a65d"/><path d="M854,370L845,448L915,430Z" fill="#23a259" stroke="#23a259"/><path d="M854,370L915,430L923,368Z" fill="#27a55d" stroke="#27a55d"/><path d="M923,368L915,430L1007,440Z" fill="#1d9b52" stroke="#1d9b52"/><path d="M923,368L1007,440L996,359Z" fill="#209d56" stroke="#209d56"/><path d="M996,359L1007,440L1070,353Z" fill="#1e9952" stroke="#1e9952"/><path d="M1070,353L1007,440L1080,434Z" fill="#189148" stroke="#189148"/><path d="M1070,353L1080,434L1164,425Z" fill="#198c45" stroke="#198c45"/><path d="M1070,353L1164,425L1162,349Z" fill="#208f4a" stroke="#208f4a"/><path d="M1162,349L1164,425L1234,347Z" fill="#208945" stroke="#208945"/><path d="M1234,347L1164,425L1230,450Z" fill="#188139" stroke="#188139"/><path d="M1234,347L1230,450L1306,432Z" fill="#187c36" stroke="#187c36"/><path d="M1234,347L1306,432L1321,349Z" fill="#207e3f" stroke="#207e3f"/><path d="M1321,349L1306,432L1322,518Z" fill="#137030" stroke="#137030"/><path d="M-38,453L-44,748L-36,519Z" fill="#7bb48f" stroke="#7bb48f"/><path d="M-38,453L-36,519L42,510Z" fill="#7fc6a0" stroke="#7fc6a0"/><path d="M-38,453L42,510L50,451Z" fill="#80caa4" stroke="#80caa4"/><path d="M50,451L42,510L106,518Z" fill="#76c39d" stroke="#76c39d"/><path d="M50,451L106,518L117,434Z" fill="#78c8a1" stroke="#78c8a1"/><path d="M117,434L106,518L204,450Z" fill="#72c69f" stroke="#72c69f"/><path d="M204,450L106,518L210,526Z" fill="#69bd96" stroke="#69bd96"/><path d="M204,450L210,526L274,523Z" fill="#62ba93" stroke="#62ba93"/><path d="M204,450L274,523L275,427Z" fill="#66c19a" stroke="#66c19a"/><path d="M275,427L274,523L347,428Z" fill="#60c096" stroke="#60c096"/><path d="M347,428L274,523L352,521Z" fill="#56b78c" stroke="#56b78c"/><path d="M347,428L352,521L437,426Z" fill="#55bb8d" stroke="#55bb8d"/><path d="M437,426L352,521L428,529Z" fill="#4ab281" stroke="#4ab281"/><path d="M437,426L428,529L514,450Z" fill="#47b480" stroke="#47b480"/><path d="M514,450L428,529L517,530Z" fill="#3caa75" stroke="#3caa75"/><path d="M514,450L517,530L586,518Z" fill="#36a76f" stroke="#36a76f"/><path d="M514,450L586,518L588,441Z" fill="#39ad73" stroke="#39ad73"/><path d="M588,441L586,518L668,511Z" fill="#2fa567" stroke="#2fa567"/><path d="M588,441L668,511L687,446Z" fill="#30a968" stroke="#30a968"/><path d="M687,446L668,511L765,520Z" fill="#249e5a" stroke="#249e5a"/><path d="M687,446L765,520L765,442Z" fill="#25a25b" stroke="#25a25b"/><path d="M765,442L765,520L845,448Z" fill="#1f9d55" stroke="#1f9d55"/><path d="M845,448L765,520L840,521Z" fill="#18944c" stroke="#18944c"/><path d="M845,448L840,521L911,523Z" fill="#148f47" stroke="#148f47"/><path d="M845,448L911,523L915,430Z" fill="#17944c" stroke="#17944c"/><path d="M915,430L911,523L1007,440Z" fill="#138f47" stroke="#138f47"/><path d="M1007,440L911,523L1003,528Z" fill="#0b843c" stroke="#0b843c"/><path d="M1007,440L1003,528L1081,511Z" fill="#077f38" stroke="#077f38"/><path d="M1007,440L1081,511L1080,434Z" fill="#0d843c" stroke="#0d843c"/><path d="M1080,434L1081,511L1147,510Z" fill="#097a32" stroke="#097a32"/><path d="M1080,434L1147,510L1164,425Z" fill="#0f7e36" stroke="#0f7e36"/><path d="M1164,425L1147,510L1230,450Z" fill="#0d7730" stroke="#0d7730"/><path d="M1230,450L1147,510L1251,513Z" fill="#086d26" stroke="#086d26"/><path d="M1230,450L1251,513L1306,432Z" fill="#0d6d29" stroke="#0d6d29"/><path d="M1306,432L1251,513L1322,518Z" fill="#086524" stroke="#086524"/><path d="M-36,519L-44,748L-33,612Z" fill="#7ba883" stroke="#7ba883"/><path d="M-36,519L-33,612L42,606Z" fill="#78b28d" stroke="#78b28d"/><path d="M-36,519L42,606L42,510Z" fill="#75b993" stroke="#75b993"/><path d="M42,510L42,606L106,518Z" fill="#6fb791" stroke="#6fb791"/><path d="M106,518L42,606L130,589Z" fill="#6caf8a" stroke="#6caf8a"/><path d="M106,518L130,589L210,526Z" fill="#66b38d" stroke="#66b38d"/><path d="M210,526L130,589L210,608Z" fill="#62aa84" stroke="#62aa84"/><path d="M210,526L210,608L292,587Z" fill="#5ba982" stroke="#5ba982"/><path d="M210,526L292,587L274,523Z" fill="#59ae87" stroke="#59ae87"/><path d="M274,523L292,587L352,521Z" fill="#52ac82" stroke="#52ac82"/><path d="M352,521L292,587L353,588Z" fill="#4ea579" stroke="#4ea579"/><path d="M352,521L353,588L428,529Z" fill="#47a778" stroke="#47a778"/><path d="M428,529L353,588L433,599Z" fill="#439e6f" stroke="#439e6f"/><path d="M428,529L433,599L520,586Z" fill="#3b9b68" stroke="#3b9b68"/><path d="M428,529L520,586L517,530Z" fill="#369f6a" stroke="#369f6a"/><path d="M517,530L520,586L586,518Z" fill="#309c64" stroke="#309c64"/><path d="M586,518L520,586L591,605Z" fill="#2d955b" stroke="#2d955b"/><path d="M586,518L591,605L668,511Z" fill="#27985a" stroke="#27985a"/><path d="M668,511L591,605L691,605Z" fill="#238f4f" stroke="#238f4f"/><path d="M668,511L691,605L754,590Z" fill="#1d8d49" stroke="#1d8d49"/><path d="M668,511L754,590L765,520Z" fill="#1a924c" stroke="#1a924c"/><path d="M765,520L754,590L840,521Z" fill="#148c44" stroke="#148c44"/><path d="M840,521L754,590L852,610Z" fill="#12823a" stroke="#12823a"/><path d="M840,521L852,610L911,523Z" fill="#0d823a" stroke="#0d823a"/><path d="M911,523L852,610L919,598Z" fill="#0b7932" stroke="#0b7932"/><path d="M911,523L919,598L1003,528Z" fill="#077b33" stroke="#077b33"/><path d="M1003,528L919,598L1002,593Z" fill="#04722b" stroke="#04722b"/><path d="M1003,528L1002,593L1084,601Z" fill="#006c25" stroke="#006c25"/><path d="M1003,528L1084,601L1081,511Z" fill="#006f29" stroke="#006f29"/><path d="M1081,511L1084,601L1147,510Z" fill="#006c25" stroke="#006c25"/><path d="M1147,510L1084,601L1173,587Z" fill="#00631c" stroke="#00631c"/><path d="M1147,510L1173,587L1251,513Z" fill="#00641d" stroke="#00641d"/><path d="M1251,513L1173,587L1245,601Z" fill="#005a13" stroke="#005a13"/><path d="M1251,513L1245,601L1322,518Z" fill="#005a17" stroke="#005a17"/><path d="M1322,518L1245,601L1312,612Z" fill="#00500f" stroke="#00500f"/><path d="M1322,518L1312,612L1314,677Z" fill="#004709" stroke="#004709"/><path d="M1322,518L1314,677L1321,770Z" fill="#003b00" stroke="#003b00"/><path d="M-33,612L-44,748L-37,690Z" fill="#7b9a80" stroke="#7b9a80"/><path d="M-33,612L-37,690L36,666Z" fill="#789f7e" stroke="#789f7e"/><path d="M-33,612L36,666L42,606Z" fill="#75a580" stroke="#75a580"/><path d="M42,606L36,666L118,668Z" fill="#6f9e7b" stroke="#6f9e7b"/><path d="M42,606L118,668L130,589Z" fill="#6ca37e" stroke="#6ca37e"/><path d="M130,589L118,668L210,608Z" fill="#65a17b" stroke="#65a17b"/><path d="M210,608L118,668L212,692Z" fill="#629775" stroke="#629775"/><path d="M210,608L212,692L293,684Z" fill="#5b9372" stroke="#5b9372"/><path d="M210,608L293,684L292,587Z" fill="#589b74" stroke="#589b74"/><path d="M292,587L293,684L353,588Z" fill="#51996f" stroke="#51996f"/><path d="M353,588L293,684L347,694Z" fill="#4e8f68" stroke="#4e8f68"/><path d="M353,588L347,694L433,599Z" fill="#479366" stroke="#479366"/><path d="M433,599L347,694L434,693Z" fill="#43895f" stroke="#43895f"/><path d="M433,599L434,693L508,685Z" fill="#3b8658" stroke="#3b8658"/><path d="M433,599L508,685L520,586Z" fill="#378d59" stroke="#378d59"/><path d="M520,586L508,685L591,605Z" fill="#308952" stroke="#308952"/><path d="M591,605L508,685L601,694Z" fill="#2d7f4b" stroke="#2d7f4b"/><path d="M591,605L601,694L669,683Z" fill="#277c43" stroke="#277c43"/><path d="M591,605L669,683L691,605Z" fill="#238142" stroke="#238142"/><path d="M691,605L669,683L764,680Z" fill="#1d7737" stroke="#1d7737"/><path d="M691,605L764,680L754,590Z" fill="#197d38" stroke="#197d38"/><path d="M754,590L764,680L852,610Z" fill="#147831" stroke="#147831"/><path d="M852,610L764,680L845,675Z" fill="#116e2a" stroke="#116e2a"/><path d="M852,610L845,675L920,690Z" fill="#0d6825" stroke="#0d6825"/><path d="M852,610L920,690L919,598Z" fill="#0b6c24" stroke="#0b6c24"/><path d="M919,598L920,690L995,673Z" fill="#07621e" stroke="#07621e"/><path d="M919,598L995,673L1002,593Z" fill="#04671f" stroke="#04671f"/><path d="M1002,593L995,673L1069,672Z" fill="#005b16" stroke="#005b16"/><path d="M1002,593L1069,672L1084,601Z" fill="#005e18" stroke="#005e18"/><path d="M1084,601L1069,672L1161,679Z" fill="#00520e" stroke="#00520e"/><path d="M1084,601L1161,679L1173,587Z" fill="#00550f" stroke="#00550f"/><path d="M1173,587L1161,679L1231,684Z" fill="#004905" stroke="#004905"/><path d="M1173,587L1231,684L1245,601Z" fill="#004d07" stroke="#004d07"/><path d="M1245,601L1231,684L1314,677Z" fill="#004000" stroke="#004000"/><path d="M1245,601L1314,677L1312,612Z" fill="#004403" stroke="#004403"/><path d="M-37,690L-44,748L47,771Z" fill="#788c7e" stroke="#788c7e"/><path d="M-37,690L47,771L36,666Z" fill="#75927d" stroke="#75927d"/><path d="M36,666L47,771L119,759Z" fill="#6f8a7a" stroke="#6f8a7a"/><path d="M36,666L119,759L118,668Z" fill="#6c9179" stroke="#6c9179"/><path d="M118,668L119,759L212,692Z" fill="#658c76" stroke="#658c76"/><path d="M212,692L119,759L211,749Z" fill="#628575" stroke="#628575"/><path d="M212,692L211,749L269,769Z" fill="#5c8272" stroke="#5c8272"/><path d="M212,692L269,769L293,684Z" fill="#598671" stroke="#598671"/><path d="M293,684L269,769L353,764Z" fill="#527d6b" stroke="#527d6b"/><path d="M293,684L353,764L347,694Z" fill="#4e8168" stroke="#4e8168"/><path d="M347,694L353,764L436,750Z" fill="#477962" stroke="#477962"/><path d="M347,694L436,750L434,693Z" fill="#437d5f" stroke="#437d5f"/><path d="M434,693L436,750L508,685Z" fill="#3b7a58" stroke="#3b7a58"/><path d="M508,685L436,750L508,767Z" fill="#377355" stroke="#377355"/><path d="M508,685L508,767L601,694Z" fill="#30744e" stroke="#30744e"/><path d="M601,694L508,767L593,770Z" fill="#2d6c4a" stroke="#2d6c4a"/><path d="M601,694L593,770L687,746Z" fill="#266942" stroke="#266942"/><path d="M601,694L687,746L669,683Z" fill="#236f3f" stroke="#236f3f"/><path d="M669,683L687,746L764,680Z" fill="#1d6c38" stroke="#1d6c38"/><path d="M764,680L687,746L752,754Z" fill="#1a6534" stroke="#1a6534"/><path d="M764,680L752,754L840,752Z" fill="#14612e" stroke="#14612e"/><path d="M764,680L840,752L845,675Z" fill="#12632b" stroke="#12632b"/><path d="M845,675L840,752L920,690Z" fill="#0d5d25" stroke="#0d5d25"/><path d="M920,690L840,752L920,749Z" fill="#0b5523" stroke="#0b5523"/><path d="M920,690L920,749L991,749Z" fill="#07501e" stroke="#07501e"/><path d="M920,690L991,749L995,673Z" fill="#05541b" stroke="#05541b"/><path d="M995,673L991,749L1069,672Z" fill="#004f16" stroke="#004f16"/><path d="M1069,672L991,749L1083,751Z" fill="#004613" stroke="#004613"/><path d="M1069,672L1083,751L1161,679Z" fill="#00460e" stroke="#00460e"/><path d="M1161,679L1083,751L1149,765Z" fill="#003c0b" stroke="#003c0b"/><path d="M1161,679L1149,765L1237,754Z" fill="#003606" stroke="#003606"/><path d="M1161,679L1237,754L1231,684Z" fill="#003a03" stroke="#003a03"/><path d="M1231,684L1237,754L1314,677Z" fill="#003500" stroke="#003500"/><path d="M1314,677L1237,754L1321,770Z" fill="#002b00" stroke="#002b00"/><path d="M47,771L1321,770L593,770Z" fill="#23603f" stroke="#23603f"/><path d="M47,771L593,770L269,769Z" fill="#52766b" stroke="#52766b"/><path d="M47,771L269,769L119,759Z" fill="#667e77" stroke="#667e77"/><path d="M119,759L269,769L211,749Z" fill="#607e74" stroke="#607e74"/><path d="M269,769L593,770L508,767Z" fill="#3b6d59" stroke="#3b6d59"/><path d="M269,769L508,767L353,764Z" fill="#477262" stroke="#477262"/><path d="M353,764L508,767L436,750Z" fill="#3f705c" stroke="#3f705c"/><path d="M593,770L1321,770L1149,765Z" fill="#003f16" stroke="#003f16"/><path d="M593,770L1149,765L840,752Z" fill="#0e5126" stroke="#0e5126"/><path d="M593,770L840,752L752,754Z" fill="#1a5e35" stroke="#1a5e35"/><path d="M593,770L752,754L687,746Z" fill="#20613c" stroke="#20613c"/><path d="M840,752L1149,765L920,749Z" fill="#05471b" stroke="#05471b"/><path d="M920,749L1149,765L991,749Z" fill="#004216" stroke="#004216"/><path d="M991,749L1149,765L1083,751Z" fill="#003c11" stroke="#003c11"/><path d="M1149,765L1321,770L1237,754Z" fill="#002901" stroke="#002901"/></g></svg>