<svg width="1274" height="661" xmlns="http://www.w3.org/2000/svg"><g><path d="M-52,-28L-55,363L-48,52Z" fill="#effbff" stroke="#effbff"/><path d="M-52,-28L-48,52L36,30Z" fill="#f8faff" stroke="#f8faff"/><path d="M-52,-28L36,30L30,-42Z" fill="#f7f9ff" stroke="#f7f9ff"/><path d="M30,-42L36,30L132,-52Z" fill="#f1f6fd" stroke="#f1f6fd"/><path d="M132,-52L36,30L109,53Z" fill="#edf4fc" stroke="#edf4fc"/><path d="M132,-52L109,53L190,36Z" fill="#e8f1fa" stroke="#e8f1fa"/><path d="M132,-52L190,36L213,-30Z" fill="#e6eff9" stroke="#e6eff9"/><path d="M132,-52L213,-30L281,-30Z" fill="#e3edf7" stroke="#e3edf7"/><path d="M132,-52L281,-30L368,-30Z" fill="#deebf6" stroke="#deebf6"/><path d="M132,-52L368,-30L527,-46Z" fill="#d7e8f3" stroke="#d7e8f3"/><path d="M132,-52L527,-46L1152,-48Z" fill="#b9d9ec" stroke="#b9d9ec"/><path d="M213,-30L190,36L287,47Z" fill="#e0edf7" stroke="#e0edf7"/><path d="M213,-30L287,47L281,-30Z" fill="#deebf6" stroke="#deebf6"/><path d="M281,-30L287,47L357,36Z" fill="#d8e9f4" stroke="#d8e9f4"/><path d="M281,-30L357,36L368,-30Z" fill="#d7e8f3" stroke="#d7e8f3"/><path d="M368,-30L357,36L427,45Z" fill="#d1e6f2" stroke="#d1e6f2"/><path d="M368,-30L427,45L453,-34Z" fill="#d0e5f1" stroke="#d0e5f1"/><path d="M368,-30L453,-34L527,-46Z" fill="#cce3f0" stroke="#cce3f0"/><path d="M453,-34L427,45L529,35Z" fill="#c8e2ef" stroke="#c8e2ef"/><path d="M453,-34L529,35L527,-46Z" fill="#c5e0ee" stroke="#c5e0ee"/><path d="M527,-46L529,35L587,-30Z" fill="#c0dded" stroke="#c0dded"/><path d="M527,-46L587,-30L679,-31Z" fill="#bad9ec" stroke="#bad9ec"/><path d="M527,-46L679,-31L855,-45Z" fill="#aed2e8" stroke="#aed2e8"/><path d="M527,-46L855,-45L1152,-48Z" fill="#99c1df" stroke="#99c1df"/><path d="M587,-30L529,35L602,31Z" fill="#bcdbec" stroke="#bcdbec"/><path d="M587,-30L602,31L679,-31Z" fill="#b7d8eb" stroke="#b7d8eb"/><path d="M679,-31L602,31L680,28Z" fill="#b2d5ea" stroke="#b2d5ea"/><path d="M679,-31L680,28L771,-29Z" fill="#abcfe6" stroke="#abcfe6"/><path d="M679,-31L771,-29L855,-45Z" fill="#a3c9e3" stroke="#a3c9e3"/><path d="M771,-29L680,28L771,36Z" fill="#a6cce5" stroke="#a6cce5"/><path d="M771,-29L771,36L832,43Z" fill="#9fc7e2" stroke="#9fc7e2"/><path d="M771,-29L832,43L855,-45Z" fill="#9cc4e0" stroke="#9cc4e0"/><path d="M855,-45L832,43L908,50Z" fill="#95bfdd" stroke="#95bfdd"/><path d="M855,-45L908,50L930,-39Z" fill="#94bbda" stroke="#94bbda"/><path d="M855,-45L930,-39L987,-44Z" fill="#91b8d8" stroke="#91b8d8"/><path d="M855,-45L987,-44L1152,-48Z" fill="#8ab0d3" stroke="#8ab0d3"/><path d="M930,-39L908,50L1004,40Z" fill="#8db5d7" stroke="#8db5d7"/><path d="M930,-39L1004,40L987,-44Z" fill="#8cb2d5" stroke="#8cb2d5"/><path d="M987,-44L1004,40L1077,-40Z" fill="#88add1" stroke="#88add1"/><path d="M987,-44L1077,-40L1152,-48Z" fill="#83a7cd" stroke="#83a7cd"/><path d="M1077,-40L1004,40L1065,39Z" fill="#84aacf" stroke="#84aacf"/><path d="M1077,-40L1065,39L1152,-48Z" fill="#80a4cb" stroke="#80a4cb"/><path d="M1152,-48L1065,39L1169,54Z" fill="#7ea1c9" stroke="#7ea1c9"/><path d="M1152,-48L1169,54L1226,27Z" fill="#7f9ac4" stroke="#7f9ac4"/><path d="M1152,-48L1226,27L1251,-33Z" fill="#8097c2" stroke="#8097c2"/><path d="M1152,-48L1251,-33L1313,-40Z" fill="#8094c0" stroke="#8094c0"/><path d="M1251,-33L1226,27L1307,35Z" fill="#7f91be" stroke="#7f91be"/><path d="M1251,-33L1307,35L1313,-40Z" fill="#808ebc" stroke="#808ebc"/><path d="M1313,-40L1307,35L1313,109Z" fill="#7d8bba" stroke="#7d8bba"/><path d="M1313,-40L1313,109L1333,288Z" fill="#748aba" stroke="#748aba"/><path d="M-48,52L-55,363L-48,275Z" fill="#d8f4ff" stroke="#d8f4ff"/><path d="M-48,52L-48,275L-34,215Z" fill="#e2f7ff" stroke="#e2f7ff"/><path d="M-48,52L-34,215L-30,105Z" fill="#eefaff" stroke="#eefaff"/><path d="M-48,52L-30,105L36,30Z" fill="#f3faff" stroke="#f3faff"/><path d="M36,30L-30,105L40,111Z" fill="#eff8ff" stroke="#eff8ff"/><path d="M36,30L40,111L109,53Z" fill="#ecf6fd" stroke="#ecf6fd"/><path d="M109,53L40,111L112,122Z" fill="#e7f4fc" stroke="#e7f4fc"/><path d="M109,53L112,122L200,106Z" fill="#e2f1fa" stroke="#e2f1fa"/><path d="M109,53L200,106L190,36Z" fill="#e2f0f9" stroke="#e2f0f9"/><path d="M190,36L200,106L287,47Z" fill="#dcedf7" stroke="#dcedf7"/><path d="M287,47L200,106L265,129Z" fill="#d7ecf6" stroke="#d7ecf6"/><path d="M287,47L265,129L370,108Z" fill="#d2e9f4" stroke="#d2e9f4"/><path d="M287,47L370,108L357,36Z" fill="#d1e8f3" stroke="#d1e8f3"/><path d="M357,36L370,108L427,45Z" fill="#cde6f2" stroke="#cde6f2"/><path d="M427,45L370,108L450,125Z" fill="#c8e5f1" stroke="#c8e5f1"/><path d="M427,45L450,125L529,35Z" fill="#c3e2ef" stroke="#c3e2ef"/><path d="M529,35L450,125L527,127Z" fill="#bde0ee" stroke="#bde0ee"/><path d="M529,35L527,127L600,132Z" fill="#b7dced" stroke="#b7dced"/><path d="M529,35L600,132L602,31Z" fill="#b7dbec" stroke="#b7dbec"/><path d="M602,31L600,132L675,122Z" fill="#afd7eb" stroke="#afd7eb"/><path d="M602,31L675,122L680,28Z" fill="#aed5ea" stroke="#aed5ea"/><path d="M680,28L675,122L771,36Z" fill="#a6cfe7" stroke="#a6cfe7"/><path d="M771,36L675,122L764,131Z" fill="#9fcce5" stroke="#9fcce5"/><path d="M771,36L764,131L834,115Z" fill="#98c7e2" stroke="#98c7e2"/><path d="M771,36L834,115L832,43Z" fill="#98c5e0" stroke="#98c5e0"/><path d="M832,43L834,115L908,50Z" fill="#91c0de" stroke="#91c0de"/><path d="M908,50L834,115L917,114Z" fill="#8dbcdb" stroke="#8dbcdb"/><path d="M908,50L917,114L989,110Z" fill="#88b7d7" stroke="#88b7d7"/><path d="M908,50L989,110L1004,40Z" fill="#87b3d5" stroke="#87b3d5"/><path d="M1004,40L989,110L1065,39Z" fill="#82add1" stroke="#82add1"/><path d="M1065,39L989,110L1093,125Z" fill="#7daacf" stroke="#7daacf"/><path d="M1065,39L1093,125L1169,54Z" fill="#79a3ca" stroke="#79a3ca"/><path d="M1169,54L1093,125L1149,121Z" fill="#77a0c8" stroke="#77a0c8"/><path d="M1169,54L1149,121L1226,133Z" fill="#779ac4" stroke="#779ac4"/><path d="M1169,54L1226,133L1226,27Z" fill="#7a97c2" stroke="#7a97c2"/><path d="M1226,27L1226,133L1313,109Z" fill="#7892bf" stroke="#7892bf"/><path d="M1226,27L1313,109L1307,35Z" fill="#7b8fbd" stroke="#7b8fbd"/><path d="M-30,105L-34,215L40,111Z" fill="#e7f8ff" stroke="#e7f8ff"/><path d="M40,111L-34,215L35,215Z" fill="#ddf4ff" stroke="#ddf4ff"/><path d="M40,111L35,215L112,122Z" fill="#dff3fd" stroke="#dff3fd"/><path d="M112,122L35,215L123,209Z" fill="#d6f0fc" stroke="#d6f0fc"/><path d="M112,122L123,209L189,198Z" fill="#d2edfa" stroke="#d2edfa"/><path d="M112,122L189,198L200,106Z" fill="#d7eef9" stroke="#d7eef9"/><path d="M200,106L189,198L265,129Z" fill="#d1ebf7" stroke="#d1ebf7"/><path d="M265,129L189,198L286,198Z" fill="#c8e8f6" stroke="#c8e8f6"/><path d="M265,129L286,198L364,189Z" fill="#c3e6f4" stroke="#c3e6f4"/><path d="M265,129L364,189L370,108Z" fill="#c7e6f3" stroke="#c7e6f3"/><path d="M370,108L364,189L433,194Z" fill="#bde3f1" stroke="#bde3f1"/><path d="M370,108L433,194L450,125Z" fill="#bfe3f0" stroke="#bfe3f0"/><path d="M450,125L433,194L515,195Z" fill="#b3deef" stroke="#b3deef"/><path d="M450,125L515,195L527,127Z" fill="#b4ddee" stroke="#b4ddee"/><path d="M527,127L515,195L593,208Z" fill="#a8d9ed" stroke="#a8d9ed"/><path d="M527,127L593,208L600,132Z" fill="#a9d8ec" stroke="#a9d8ec"/><path d="M600,132L593,208L694,192Z" fill="#9ed3eb" stroke="#9ed3eb"/><path d="M600,132L694,192L675,122Z" fill="#a1d2ea" stroke="#a1d2ea"/><path d="M675,122L694,192L764,131Z" fill="#99cde6" stroke="#99cde6"/><path d="M764,131L694,192L767,210Z" fill="#8fc7e5" stroke="#8fc7e5"/><path d="M764,131L767,210L837,211Z" fill="#87c2e2" stroke="#87c2e2"/><path d="M764,131L837,211L834,115Z" fill="#8bc2e0" stroke="#8bc2e0"/><path d="M834,115L837,211L914,196Z" fill="#80bbdd" stroke="#80bbdd"/><path d="M834,115L914,196L917,114Z" fill="#84badb" stroke="#84badb"/><path d="M917,114L914,196L989,110Z" fill="#7fb4d7" stroke="#7fb4d7"/><path d="M989,110L914,196L1002,201Z" fill="#76b0d5" stroke="#76b0d5"/><path d="M989,110L1002,201L1093,125Z" fill="#76aad0" stroke="#76aad0"/><path d="M1093,125L1002,201L1094,199Z" fill="#6ca4ce" stroke="#6ca4ce"/><path d="M1093,125L1094,199L1149,121Z" fill="#6ea0ca" stroke="#6ea0ca"/><path d="M1149,121L1094,199L1164,189Z" fill="#699cc8" stroke="#699cc8"/><path d="M1149,121L1164,189L1226,133Z" fill="#6e98c5" stroke="#6e98c5"/><path d="M1226,133L1164,189L1227,186Z" fill="#6994c3" stroke="#6994c3"/><path d="M1226,133L1227,186L1314,199Z" fill="#698ebf" stroke="#698ebf"/><path d="M1226,133L1314,199L1313,109Z" fill="#6e8cbc" stroke="#6e8cbc"/><path d="M1313,109L1314,199L1333,288Z" fill="#6385ba" stroke="#6385ba"/><path d="M-34,215L-48,275L43,275Z" fill="#ceedff" stroke="#ceedff"/><path d="M-34,215L43,275L35,215Z" fill="#d0efff" stroke="#d0efff"/><path d="M35,215L43,275L123,209Z" fill="#ccecfd" stroke="#ccecfd"/><path d="M123,209L43,275L121,288Z" fill="#c3e7fc" stroke="#c3e7fc"/><path d="M123,209L121,288L199,286Z" fill="#bce3fa" stroke="#bce3fa"/><path d="M123,209L199,286L189,198Z" fill="#c2e7f9" stroke="#c2e7f9"/><path d="M189,198L199,286L272,266Z" fill="#b9e1f7" stroke="#b9e1f7"/><path d="M189,198L272,266L286,198Z" fill="#bee5f6" stroke="#bee5f6"/><path d="M286,198L272,266L356,275Z" fill="#b2dff4" stroke="#b2dff4"/><path d="M286,198L356,275L364,189Z" fill="#b6e1f3" stroke="#b6e1f3"/><path d="M364,189L356,275L433,194Z" fill="#b1dff2" stroke="#b1dff2"/><path d="M433,194L356,275L450,279Z" fill="#a6daf1" stroke="#a6daf1"/><path d="M433,194L450,279L515,195Z" fill="#a8dbef" stroke="#a8dbef"/><path d="M515,195L450,279L522,283Z" fill="#9cd4ee" stroke="#9cd4ee"/><path d="M515,195L522,283L593,208Z" fill="#9cd4ed" stroke="#9cd4ed"/><path d="M593,208L522,283L601,273Z" fill="#92cfec" stroke="#92cfec"/><path d="M593,208L601,273L672,272Z" fill="#8dcceb" stroke="#8dcceb"/><path d="M593,208L672,272L694,192Z" fill="#91ceea" stroke="#91ceea"/><path d="M694,192L672,272L748,284Z" fill="#83c4e7" stroke="#83c4e7"/><path d="M694,192L748,284L767,210Z" fill="#84c4e5" stroke="#84c4e5"/><path d="M767,210L748,284L854,270Z" fill="#75bae2" stroke="#75bae2"/><path d="M767,210L854,270L837,211Z" fill="#78bbe0" stroke="#78bbe0"/><path d="M837,211L854,270L914,196Z" fill="#73b7dd" stroke="#73b7dd"/><path d="M914,196L854,270L929,284Z" fill="#6ab0da" stroke="#6ab0da"/><path d="M914,196L929,284L1002,201Z" fill="#6badd7" stroke="#6badd7"/><path d="M1002,201L929,284L1002,295Z" fill="#5fa5d4" stroke="#5fa5d4"/><path d="M1002,201L1002,295L1082,292Z" fill="#5a9fd0" stroke="#5a9fd0"/><path d="M1002,201L1082,292L1094,199Z" fill="#5fa0ce" stroke="#5fa0ce"/><path d="M1094,199L1082,292L1173,277Z" fill="#5495ca" stroke="#5495ca"/><path d="M1094,199L1173,277L1164,189Z" fill="#5e98c7" stroke="#5e98c7"/><path d="M1164,189L1173,277L1227,186Z" fill="#5f93c4" stroke="#5f93c4"/><path d="M1227,186L1173,277L1253,292Z" fill="#568ac2" stroke="#568ac2"/><path d="M1227,186L1253,292L1314,199Z" fill="#5d89be" stroke="#5d89be"/><path d="M1314,199L1253,292L1333,288Z" fill="#5380bb" stroke="#5380bb"/><path d="M-48,275L-55,363L46,358Z" fill="#b9e2ff" stroke="#b9e2ff"/><path d="M-48,275L46,358L43,275Z" fill="#bde5ff" stroke="#bde5ff"/><path d="M43,275L46,358L106,351Z" fill="#b1defd" stroke="#b1defd"/><path d="M43,275L106,351L121,288Z" fill="#b6e0fc" stroke="#b6e0fc"/><path d="M121,288L106,351L208,360Z" fill="#a8d9f9" stroke="#a8d9f9"/><path d="M121,288L208,360L199,286Z" fill="#acdaf9" stroke="#acdaf9"/><path d="M199,286L208,360L271,347Z" fill="#a1d5f7" stroke="#a1d5f7"/><path d="M199,286L271,347L272,266Z" fill="#a8d9f6" stroke="#a8d9f6"/><path d="M272,266L271,347L356,275Z" fill="#a4d7f4" stroke="#a4d7f4"/><path d="M356,275L271,347L366,367Z" fill="#98d0f3" stroke="#98d0f3"/><path d="M356,275L366,367L450,279Z" fill="#98d2f1" stroke="#98d2f1"/><path d="M450,279L366,367L447,371Z" fill="#8dcbef" stroke="#8dcbef"/><path d="M450,279L447,371L510,359Z" fill="#87c8ee" stroke="#87c8ee"/><path d="M450,279L510,359L522,283Z" fill="#8dccee" stroke="#8dccee"/><path d="M522,283L510,359L594,353Z" fill="#80c5ed" stroke="#80c5ed"/><path d="M522,283L594,353L601,273Z" fill="#85c7ec" stroke="#85c7ec"/><path d="M601,273L594,353L672,272Z" fill="#80c5eb" stroke="#80c5eb"/><path d="M672,272L594,353L694,371Z" fill="#73bdea" stroke="#73bdea"/><path d="M672,272L694,371L748,284Z" fill="#72bbe7" stroke="#72bbe7"/><path d="M748,284L694,371L753,364Z" fill="#65b3e4" stroke="#65b3e4"/><path d="M748,284L753,364L841,356Z" fill="#60afe2" stroke="#60afe2"/><path d="M748,284L841,356L854,270Z" fill="#65b0e0" stroke="#65b0e0"/><path d="M854,270L841,356L907,367Z" fill="#57a7dd" stroke="#57a7dd"/><path d="M854,270L907,367L929,284Z" fill="#5aa7db" stroke="#5aa7db"/><path d="M929,284L907,367L989,358Z" fill="#4d9dd6" stroke="#4d9dd6"/><path d="M929,284L989,358L1002,295Z" fill="#519dd5" stroke="#519dd5"/><path d="M1002,295L989,358L1067,353Z" fill="#4694d1" stroke="#4694d1"/><path d="M1002,295L1067,353L1082,292Z" fill="#4a94cf" stroke="#4a94cf"/><path d="M1082,292L1067,353L1148,350Z" fill="#408bcb" stroke="#408bcb"/><path d="M1082,292L1148,350L1173,277Z" fill="#468bc8" stroke="#468bc8"/><path d="M1173,277L1148,350L1227,350Z" fill="#4183c4" stroke="#4183c4"/><path d="M1173,277L1227,350L1253,292Z" fill="#4682c2" stroke="#4682c2"/><path d="M1253,292L1227,350L1308,346Z" fill="#4079be" stroke="#4079be"/><path d="M1253,292L1308,346L1333,288Z" fill="#4678bb" stroke="#4678bb"/><path d="M1333,288L1308,346L1321,430Z" fill="#386db6" stroke="#386db6"/><path d="M1333,288L1321,430L1326,519Z" fill="#265eae" stroke="#265eae"/><path d="M1333,288L1326,519L1329,672Z" fill="#1849a0" stroke="#1849a0"/><path d="M-55,363L-52,533L-53,434Z" fill="#99caf0" stroke="#99caf0"/><path d="M-55,363L-53,434L46,358Z" fill="#a8d5f8" stroke="#a8d5f8"/><path d="M46,358L-53,434L52,436Z" fill="#9dcef4" stroke="#9dcef4"/><path d="M46,358L52,436L106,351Z" fill="#a1d1f6" stroke="#a1d1f6"/><path d="M106,351L52,436L130,449Z" fill="#94c9f1" stroke="#94c9f1"/><path d="M106,351L130,449L208,360Z" fill="#97cbf2" stroke="#97cbf2"/><path d="M208,360L130,449L193,448Z" fill="#8bc2ed" stroke="#8bc2ed"/><path d="M208,360L193,448L274,433Z" fill="#88c1eb" stroke="#88c1eb"/><path d="M208,360L274,433L271,347Z" fill="#90c8ef" stroke="#90c8ef"/><path d="M271,347L274,433L366,367Z" fill="#8ac6ed" stroke="#8ac6ed"/><path d="M366,367L274,433L370,433Z" fill="#7ebde8" stroke="#7ebde8"/><path d="M366,367L370,433L447,371Z" fill="#7fc0e9" stroke="#7fc0e9"/><path d="M447,371L370,433L440,447Z" fill="#74b8e4" stroke="#74b8e4"/><path d="M447,371L440,447L512,445Z" fill="#6db5e3" stroke="#6db5e3"/><path d="M447,371L512,445L510,359Z" fill="#74bae6" stroke="#74bae6"/><path d="M510,359L512,445L594,353Z" fill="#70b8e6" stroke="#70b8e6"/><path d="M594,353L512,445L598,451Z" fill="#63afe1" stroke="#63afe1"/><path d="M594,353L598,451L682,440Z" fill="#5cace0" stroke="#5cace0"/><path d="M594,353L682,440L694,371Z" fill="#61afe2" stroke="#61afe2"/><path d="M694,371L682,440L756,428Z" fill="#51a4db" stroke="#51a4db"/><path d="M694,371L756,428L753,364Z" fill="#56a7dd" stroke="#56a7dd"/><path d="M753,364L756,428L841,356Z" fill="#51a3db" stroke="#51a3db"/><path d="M841,356L756,428L846,446Z" fill="#4499d5" stroke="#4499d5"/><path d="M841,356L846,446L907,367Z" fill="#4499d5" stroke="#4499d5"/><path d="M907,367L846,446L916,427Z" fill="#3a91d0" stroke="#3a91d0"/><path d="M907,367L916,427L989,358Z" fill="#3f92d0" stroke="#3f92d0"/><path d="M989,358L916,427L1006,429Z" fill="#3689cb" stroke="#3689cb"/><path d="M989,358L1006,429L1067,353Z" fill="#3889ca" stroke="#3889ca"/><path d="M1067,353L1006,429L1073,433Z" fill="#2e80c5" stroke="#2e80c5"/><path d="M1067,353L1073,433L1148,350Z" fill="#3181c5" stroke="#3181c5"/><path d="M1148,350L1073,433L1160,440Z" fill="#2877be" stroke="#2877be"/><path d="M1148,350L1160,440L1227,350Z" fill="#3077be" stroke="#3077be"/><path d="M1227,350L1160,440L1254,435Z" fill="#276cb7" stroke="#276cb7"/><path d="M1227,350L1254,435L1308,346Z" fill="#316eb8" stroke="#316eb8"/><path d="M1308,346L1254,435L1321,430Z" fill="#2964b2" stroke="#2964b2"/><path d="M-53,434L-52,533L31,509Z" fill="#92bbe7" stroke="#92bbe7"/><path d="M-53,434L31,509L52,436Z" fill="#92c2ec" stroke="#92c2ec"/><path d="M52,436L31,509L131,508Z" fill="#89b8e6" stroke="#89b8e6"/><path d="M52,436L131,508L130,449Z" fill="#88bbe8" stroke="#88bbe8"/><path d="M130,449L131,508L193,448Z" fill="#83b7e6" stroke="#83b7e6"/><path d="M193,448L131,508L196,518Z" fill="#7fb0e1" stroke="#7fb0e1"/><path d="M193,448L196,518L274,433Z" fill="#7db4e3" stroke="#7db4e3"/><path d="M274,433L196,518L295,531Z" fill="#77abdd" stroke="#77abdd"/><path d="M274,433L295,531L357,522Z" fill="#72a9dc" stroke="#72a9dc"/><path d="M274,433L357,522L370,433Z" fill="#72b0e0" stroke="#72b0e0"/><path d="M370,433L357,522L441,512Z" fill="#6ba7da" stroke="#6ba7da"/><path d="M370,433L441,512L440,447Z" fill="#6aadde" stroke="#6aadde"/><path d="M440,447L441,512L512,445Z" fill="#64a9db" stroke="#64a9db"/><path d="M512,445L441,512L531,509Z" fill="#5fa1d7" stroke="#5fa1d7"/><path d="M512,445L531,509L598,451Z" fill="#5ba3d9" stroke="#5ba3d9"/><path d="M598,451L531,509L600,512Z" fill="#559bd4" stroke="#559bd4"/><path d="M598,451L600,512L679,521Z" fill="#4f97d3" stroke="#4f97d3"/><path d="M598,451L679,521L682,440Z" fill="#4e9bd5" stroke="#4e9bd5"/><path d="M682,440L679,521L753,506Z" fill="#4591cf" stroke="#4591cf"/><path d="M682,440L753,506L756,428Z" fill="#4497d3" stroke="#4497d3"/><path d="M756,428L753,506L846,446Z" fill="#3d90d0" stroke="#3d90d0"/><path d="M846,446L753,506L831,534Z" fill="#3684c8" stroke="#3684c8"/><path d="M846,446L831,534L925,524Z" fill="#2e7dc3" stroke="#2e7dc3"/><path d="M846,446L925,524L916,427Z" fill="#2f83c7" stroke="#2f83c7"/><path d="M916,427L925,524L1006,429Z" fill="#2a7ec4" stroke="#2a7ec4"/><path d="M1006,429L925,524L1013,525Z" fill="#2472bc" stroke="#2472bc"/><path d="M1006,429L1013,525L1073,433Z" fill="#2274bd" stroke="#2274bd"/><path d="M1073,433L1013,525L1095,520Z" fill="#1c68b6" stroke="#1c68b6"/><path d="M1073,433L1095,520L1160,440Z" fill="#1b6ab7" stroke="#1b6ab7"/><path d="M1160,440L1095,520L1166,508Z" fill="#1860b0" stroke="#1860b0"/><path d="M1160,440L1166,508L1254,435Z" fill="#1b62b1" stroke="#1b62b1"/><path d="M1254,435L1166,508L1248,516Z" fill="#1858aa" stroke="#1858aa"/><path d="M1254,435L1248,516L1326,519Z" fill="#1851a6" stroke="#1851a6"/><path d="M1254,435L1326,519L1321,430Z" fill="#1b55a9" stroke="#1b55a9"/><path d="M-52,533L-41,694L-38,600Z" fill="#879dd2" stroke="#879dd2"/><path d="M-52,533L-38,600L31,509Z" fill="#8cacdd" stroke="#8cacdd"/><path d="M31,509L-38,600L49,594Z" fill="#86a4d9" stroke="#86a4d9"/><path d="M31,509L49,594L131,508Z" fill="#84a9dd" stroke="#84a9dd"/><path d="M131,508L49,594L108,606Z" fill="#7e9fd6" stroke="#7e9fd6"/><path d="M131,508L108,606L209,591Z" fill="#799dd4" stroke="#799dd4"/><path d="M131,508L209,591L196,518Z" fill="#79a3d8" stroke="#79a3d8"/><path d="M196,518L209,591L295,531Z" fill="#739ed5" stroke="#739ed5"/><path d="M295,531L209,591L277,615Z" fill="#6d94ce" stroke="#6d94ce"/><path d="M295,531L277,615L359,605Z" fill="#6891cc" stroke="#6891cc"/><path d="M295,531L359,605L357,522Z" fill="#6998d0" stroke="#6998d0"/><path d="M357,522L359,605L437,586Z" fill="#6391cc" stroke="#6391cc"/><path d="M357,522L437,586L441,512Z" fill="#6399d0" stroke="#6399d0"/><path d="M441,512L437,586L506,602Z" fill="#5b8fca" stroke="#5b8fca"/><path d="M441,512L506,602L531,509Z" fill="#5a93cd" stroke="#5a93cd"/><path d="M531,509L506,602L604,610Z" fill="#5087c7" stroke="#5087c7"/><path d="M531,509L604,610L600,512Z" fill="#4f8dcb" stroke="#4f8dcb"/><path d="M600,512L604,610L676,600Z" fill="#4682c5" stroke="#4682c5"/><path d="M600,512L676,600L679,521Z" fill="#4687c8" stroke="#4687c8"/><path d="M679,521L676,600L753,506Z" fill="#3f83c6" stroke="#3f83c6"/><path d="M753,506L676,600L768,613Z" fill="#3877bf" stroke="#3877bf"/><path d="M753,506L768,613L831,534Z" fill="#3378c0" stroke="#3378c0"/><path d="M831,534L768,613L851,586Z" fill="#2c6eb9" stroke="#2c6eb9"/><path d="M831,534L851,586L925,524Z" fill="#2970bb" stroke="#2970bb"/><path d="M925,524L851,586L911,591Z" fill="#2467b5" stroke="#2467b5"/><path d="M925,524L911,591L1014,594Z" fill="#1f61b0" stroke="#1f61b0"/><path d="M925,524L1014,594L1013,525Z" fill="#1e63b2" stroke="#1e63b2"/><path d="M1013,525L1014,594L1078,600Z" fill="#1656a9" stroke="#1656a9"/><path d="M1013,525L1078,600L1095,520Z" fill="#1659ac" stroke="#1659ac"/><path d="M1095,520L1078,600L1152,585Z" fill="#104fa5" stroke="#104fa5"/><path d="M1095,520L1152,585L1166,508Z" fill="#1353a8" stroke="#1353a8"/><path d="M1166,508L1152,585L1225,607Z" fill="#10479f" stroke="#10479f"/><path d="M1166,508L1225,607L1248,516Z" fill="#1249a1" stroke="#1249a1"/><path d="M1248,516L1225,607L1318,604Z" fill="#0f3b97" stroke="#0f3b97"/><path d="M1248,516L1318,604L1326,519Z" fill="#123f9a" stroke="#123f9a"/><path d="M1326,519L1318,604L1329,672Z" fill="#0d2e8e" stroke="#0d2e8e"/><path d="M-38,600L-41,694L40,666Z" fill="#808fcb" stroke="#808fcb"/><path d="M-38,600L40,666L49,594Z" fill="#8196d0" stroke="#8196d0"/><path d="M49,594L40,666L108,606Z" fill="#7b93ce" stroke="#7b93ce"/><path d="M108,606L40,666L133,687Z" fill="#7689c7" stroke="#7689c7"/><path d="M108,606L133,687L209,591Z" fill="#738dca" stroke="#738dca"/><path d="M209,591L133,687L195,690Z" fill="#6d84c4" stroke="#6d84c4"/><path d="M209,591L195,690L277,615Z" fill="#6b88c6" stroke="#6b88c6"/><path d="M277,615L195,690L286,686Z" fill="#657ebf" stroke="#657ebf"/><path d="M277,615L286,686L359,605Z" fill="#6383c3" stroke="#6383c3"/><path d="M359,605L286,686L369,690Z" fill="#5d7bbd" stroke="#5d7bbd"/><path d="M359,605L369,690L445,685Z" fill="#587abb" stroke="#587abb"/><path d="M359,605L445,685L437,586Z" fill="#5a82c1" stroke="#5a82c1"/><path d="M437,586L445,685L506,602Z" fill="#557fc0" stroke="#557fc0"/><path d="M506,602L445,685L530,679Z" fill="#4d75b9" stroke="#4d75b9"/><path d="M506,602L530,679L604,610Z" fill="#4a78bd" stroke="#4a78bd"/><path d="M604,610L530,679L598,691Z" fill="#436eb6" stroke="#436eb6"/><path d="M604,610L598,691L687,675Z" fill="#3d6bb5" stroke="#3d6bb5"/><path d="M604,610L687,675L676,600Z" fill="#3d70ba" stroke="#3d70ba"/><path d="M676,600L687,675L768,613Z" fill="#356bb6" stroke="#356bb6"/><path d="M768,613L687,675L756,682Z" fill="#2f60b0" stroke="#2f60b0"/><path d="M768,613L756,682L855,694Z" fill="#2659ab" stroke="#2659ab"/><path d="M768,613L855,694L851,586Z" fill="#255eaf" stroke="#255eaf"/><path d="M851,586L855,694L911,591Z" fill="#215bad" stroke="#215bad"/><path d="M911,591L855,694L927,671Z" fill="#1b51a6" stroke="#1b51a6"/><path d="M911,591L927,671L1014,594Z" fill="#1954a8" stroke="#1954a8"/><path d="M1014,594L927,671L1000,673Z" fill="#1449a1" stroke="#1449a1"/><path d="M1014,594L1000,673L1084,669Z" fill="#0f439d" stroke="#0f439d"/><path d="M1014,594L1084,669L1078,600Z" fill="#0f469f" stroke="#0f469f"/><path d="M1078,600L1084,669L1152,585Z" fill="#0b429c" stroke="#0b429c"/><path d="M1152,585L1084,669L1146,681Z" fill="#083896" stroke="#083896"/><path d="M1152,585L1146,681L1225,607Z" fill="#0a3895" stroke="#0a3895"/><path d="M1225,607L1146,681L1247,694Z" fill="#062b8d" stroke="#062b8d"/><path d="M1225,607L1247,694L1318,604Z" fill="#092b8d" stroke="#092b8d"/><path d="M1318,604L1247,694L1329,672Z" fill="#072186" stroke="#072186"/><path d="M-41,694L-34,764L39,754Z" fill="#797abc" stroke="#797abc"/><path d="M-41,694L39,754L40,666Z" fill="#7880c1" stroke="#7880c1"/><path d="M40,666L39,754L133,687Z" fill="#727dbf" stroke="#727dbf"/><path d="M133,687L39,754L123,764Z" fill="#6e74b9" stroke="#6e74b9"/><path d="M133,687L123,764L195,690Z" fill="#6a76ba" stroke="#6a76ba"/><path d="M195,690L123,764L196,773Z" fill="#6770b4" stroke="#6770b4"/><path d="M195,690L196,773L277,763Z" fill="#626db2" stroke="#626db2"/><path d="M195,690L277,763L286,686Z" fill="#6071b7" stroke="#6071b7"/><path d="M286,686L277,763L360,773Z" fill="#5a6ab0" stroke="#5a6ab0"/><path d="M286,686L360,773L369,690Z" fill="#576cb3" stroke="#576cb3"/><path d="M369,690L360,773L428,774Z" fill="#5367ad" stroke="#5367ad"/><path d="M369,690L428,774L445,685Z" fill="#5069b1" stroke="#5069b1"/><path d="M445,685L428,774L520,757Z" fill="#4a63ac" stroke="#4a63ac"/><path d="M445,685L520,757L530,679Z" fill="#4766b0" stroke="#4766b0"/><path d="M530,679L520,757L598,691Z" fill="#4163af" stroke="#4163af"/><path d="M598,691L520,757L610,757Z" fill="#3d5ba9" stroke="#3d5ba9"/><path d="M598,691L610,757L687,675Z" fill="#375eac" stroke="#375eac"/><path d="M687,675L610,757L677,770Z" fill="#3355a7" stroke="#3355a7"/><path d="M687,675L677,770L755,768Z" fill="#2c50a3" stroke="#2c50a3"/><path d="M687,675L755,768L756,682Z" fill="#2a53a7" stroke="#2a53a7"/><path d="M756,682L755,768L855,694Z" fill="#224ca2" stroke="#224ca2"/><path d="M855,694L755,768L854,762Z" fill="#1d449c" stroke="#1d449c"/><path d="M855,694L854,762L930,750Z" fill="#163e99" stroke="#163e99"/><path d="M855,694L930,750L927,671Z" fill="#15419c" stroke="#15419c"/><path d="M927,671L930,750L1000,673Z" fill="#113e9a" stroke="#113e9a"/><path d="M1000,673L930,750L989,768Z" fill="#0d3392" stroke="#0d3392"/><path d="M1000,673L989,768L1086,771Z" fill="#082d8d" stroke="#082d8d"/><path d="M1000,673L1086,771L1084,669Z" fill="#063091" stroke="#063091"/><path d="M1084,669L1086,771L1146,681Z" fill="#012a8c" stroke="#012a8c"/><path d="M1146,681L1086,771L1172,750Z" fill="#002085" stroke="#002085"/><path d="M1146,681L1172,750L1247,694Z" fill="#012085" stroke="#012085"/><path d="M1247,694L1172,750L1242,751Z" fill="#00167f" stroke="#00167f"/><path d="M1247,694L1242,751L1322,748Z" fill="#00117b" stroke="#00117b"/><path d="M1247,694L1322,748L1329,672Z" fill="#02147e" stroke="#02147e"/><path d="M-34,764L196,773L123,764Z" fill="#6f74b3" stroke="#6f74b3"/><path d="M-34,764L123,764L39,754Z" fill="#7477b6" stroke="#7477b6"/><path d="M196,773L428,774L360,773Z" fill="#5869a9" stroke="#5869a9"/><path d="M196,773L360,773L277,763Z" fill="#5d6bac" stroke="#5d6bac"/><path d="M428,774L1086,771L677,770Z" fill="#294e9c" stroke="#294e9c"/><path d="M428,774L677,770L520,757Z" fill="#415ea4" stroke="#415ea4"/><path d="M520,757L677,770L610,757Z" fill="#3a5aa4" stroke="#3a5aa4"/><path d="M677,770L1086,771L755,768Z" fill="#1a4296" stroke="#1a4296"/><path d="M755,768L1086,771L989,768Z" fill="#10368e" stroke="#10368e"/><path d="M755,768L989,768L854,762Z" fill="#173f94" stroke="#173f94"/><path d="M854,762L989,768L930,750Z" fill="#123991" stroke="#123991"/><path d="M1086,771L1322,748L1242,751Z" fill="#00177b" stroke="#00177b"/><path d="M1086,771L1242,751L1172,750Z" fill="#001d7f" stroke="#001d7f"/></g></svg>